<?xml version="1.0" encoding="UTF-8"?>
<!-- Generated by Pixelmator Pro 3.7 -->
<svg width="4141" height="1073" viewBox="0 0 4141 1073" xmlns="http://www.w3.org/2000/svg">
    <g id="Logo-mit-Schriftzug">
        <g id="Logo">
            <g id="Unten">
                <path id="path1" fill="#ffffff" fill-rule="evenodd" stroke="none" d="M 657.688599 512.316895 C 606.258301 485.650635 523.074341 485.172241 471.893738 511.248474 L 69.253235 716.391968 C 18.072849 742.46814 18.275269 785.225159 69.705544 811.891418 L 474.311462 1021.677063 C 525.741516 1048.343384 608.925659 1048.821777 660.106079 1022.745483 L 1062.746826 817.602051 C 1113.927246 791.525879 1113.724609 748.76886 1062.294434 722.102539 Z"/>
                <path id="path2" fill="#005e54" fill-rule="evenodd" stroke="none" d="M 671.497559 485.68399 C 611.497192 454.574188 518.100403 454.037079 458.274689 484.517944 L 55.634155 689.661438 C 21.561773 707.021179 0.85508 733.306519 1.000728 764.0625 C 1.145528 794.639465 21.885256 820.889709 55.896557 838.524353 L 460.502472 1048.309937 C 520.502625 1079.4198 613.899658 1079.956909 673.72522 1049.475952 L 1076.365845 844.332581 C 1110.438354 826.972839 1131.14502 800.687439 1130.999268 769.931458 C 1130.85437 739.354492 1110.114746 713.104309 1076.103516 695.469666 L 671.497559 485.68399 Z M 471.893738 511.248474 C 523.074341 485.172241 606.258301 485.650635 657.688599 512.316895 L 1062.294434 722.102539 C 1113.724609 748.76886 1113.927246 791.525879 1062.746826 817.602051 L 660.106079 1022.745483 C 608.925659 1048.821777 525.741516 1048.343384 474.311462 1021.677063 L 69.705544 811.891418 C 18.275269 785.225159 18.072849 742.46814 69.253235 716.391968 L 471.893738 511.248474 Z"/>
            </g>
            <g id="Mitte">
                <path id="path3" fill="#ffffff" fill-opacity="0.695295" fill-rule="evenodd" stroke="none" d="M 657.688599 282.316895 C 606.258301 255.650635 523.074341 255.172241 471.893738 281.248474 L 69.253235 486.391907 C 18.072849 512.468079 18.275269 555.225159 69.705544 581.891418 L 474.311462 791.677063 C 525.741516 818.343323 608.925659 818.821716 660.106079 792.745483 L 1062.746826 587.602051 C 1113.927246 561.525879 1113.724609 518.76886 1062.294434 492.102539 Z"/>
                <path id="path4" fill="#005e54" fill-rule="evenodd" stroke="none" d="M 671.497559 255.68399 C 611.497192 224.574173 518.100403 224.037079 458.274689 254.517944 L 55.634159 459.661377 C 21.561773 477.021118 0.85508 503.306488 1.000728 534.062439 C 1.145528 564.639465 21.885258 590.889709 55.896557 608.524353 L 460.502472 818.309998 C 520.502625 849.4198 613.899658 849.956909 673.725159 819.476013 L 1076.365845 614.332581 C 1110.438354 596.972839 1131.14502 570.687439 1130.999268 539.931458 C 1130.85437 509.354523 1110.114746 483.104309 1076.103516 465.469666 L 671.497559 255.68399 Z M 471.893738 281.248474 C 523.074341 255.172241 606.258301 255.650635 657.688599 282.316895 L 1062.294434 492.102539 C 1113.724609 518.76886 1113.927246 561.525879 1062.746826 587.602051 L 660.106079 792.745483 C 608.925659 818.821716 525.741516 818.343323 474.311462 791.677063 L 69.705544 581.891418 C 18.275269 555.225159 18.072849 512.468079 69.253235 486.391907 L 471.893738 281.248474 Z"/>
            </g>
            <g id="Oben">
                <path id="path5" fill="#ffffff" fill-opacity="0.395981" fill-rule="evenodd" stroke="none" d="M 657.688599 52.322937 C 606.258301 25.656616 523.074341 25.178345 471.893738 51.254456 L 69.253235 256.397949 C 18.072849 282.474121 18.275269 325.23114 69.705544 351.897461 L 474.311462 561.683105 C 525.741516 588.349365 608.925659 588.827759 660.106079 562.751526 L 1062.746826 357.608093 C 1113.927246 331.531921 1113.724609 288.774841 1062.294434 262.108582 Z"/>
                <path id="path6" fill="#005e54" fill-rule="evenodd" stroke="none" d="M 671.49762 25.690039 C 611.497314 -5.41979 518.100525 -5.956864 458.274719 24.523899 L 55.634155 229.667435 C 21.561771 247.027145 0.85508 273.312531 1.000728 304.068451 C 1.145528 334.645477 21.885242 360.895691 55.89653 378.530365 L 460.502472 588.31604 C 520.502625 619.425842 613.899658 619.962952 673.725159 589.482056 L 1076.365845 384.338623 C 1110.438354 366.978882 1131.14502 340.693481 1130.999268 309.9375 C 1130.85437 279.360504 1110.114624 253.110321 1076.103394 235.475677 L 671.49762 25.690039 Z M 471.893738 51.254456 C 523.074341 25.178345 606.258301 25.656616 657.688599 52.322937 L 1062.294434 262.108582 C 1113.724609 288.774841 1113.927246 331.531921 1062.746826 357.608093 L 660.106079 562.751526 C 608.925659 588.827759 525.741516 588.349365 474.311462 561.683105 L 69.705544 351.897461 C 18.275269 325.23114 18.072849 282.474121 69.253235 256.397949 L 471.893738 51.254456 Z"/>
            </g>
        </g>
        <path id="Schriftzug" fill="#ffffff" fill-rule="evenodd" stroke="none" d="M 3872.179932 938.820007 C 3856.126465 938.820007 3845.090088 932.943359 3839.070068 921.190002 C 3833.050049 909.436646 3833.47998 895.820068 3840.360107 880.339966 L 3891.100098 766.820007 L 3738.02002 411.640015 C 3731.139893 396.159912 3730.996582 382.400085 3737.590088 370.359985 C 3744.18335 358.319946 3757.226563 352.299988 3776.719971 352.299988 C 3787.040039 352.299988 3795.496582 354.879944 3802.090088 360.039978 C 3808.68335 365.200012 3814.560059 374.086609 3819.719971 386.700012 L 3937.540039 677.380005 L 4057.080078 386.700012 C 4062.240234 373.513245 4068.259766 364.483337 4075.139648 359.609985 C 4082.02002 354.736633 4091.47998 352.299988 4103.52002 352.299988 C 4119 352.299988 4129.606445 358.319946 4135.339844 370.359985 C 4141.073242 382.400085 4140.786621 395.87323 4134.47998 410.780029 L 3919.47998 905.280029 C 3913.746582 918.466736 3907.296631 927.353333 3900.129883 931.940002 C 3892.963379 936.526672 3883.646729 938.820007 3872.179932 938.820007 Z M 3459.379883 785.73999 C 3422.686523 785.73999 3390.436768 776.996765 3362.629883 759.51001 C 3334.823242 742.023254 3313.180176 716.940186 3297.699951 684.26001 C 3282.219971 651.579834 3274.47998 612.880249 3274.47998 568.159973 C 3274.47998 523.439758 3282.219971 484.883484 3297.699951 452.48999 C 3313.180176 420.096497 3334.679932 395.013428 3362.199951 377.23999 C 3389.720215 359.466553 3422.113037 350.580017 3459.379883 350.580017 C 3490.913574 350.580017 3519.006592 357.459961 3543.659912 371.219971 C 3568.313477 384.980042 3586.659912 403.61322 3598.699951 427.119995 L 3598.699951 209.539978 C 3598.699951 180.299866 3613.033203 165.679993 3641.699951 165.679993 C 3670.940186 165.679993 3685.560059 180.299866 3685.560059 209.539978 L 3685.560059 740.160034 C 3685.560059 769.400146 3671.226807 784.02002 3642.560059 784.02002 C 3613.893311 784.02002 3599.560059 769.400146 3599.560059 740.160034 L 3599.560059 707.47998 C 3586.946533 731.56012 3568.313477 750.623291 3543.659912 764.670044 C 3519.006592 778.716736 3490.913574 785.73999 3459.379883 785.73999 Z M 3481.73999 718.660034 C 3517.286865 718.660034 3545.953125 705.760132 3567.73999 679.959961 C 3589.526855 654.159912 3600.419922 616.893555 3600.419922 568.159973 C 3600.419922 519.426453 3589.526855 482.303467 3567.73999 456.789978 C 3545.953125 431.27655 3517.286865 418.52002 3481.73999 418.52002 C 3445.619873 418.52002 3416.666748 431.27655 3394.879883 456.789978 C 3373.093262 482.303467 3362.199951 519.426453 3362.199951 568.159973 C 3362.199951 616.893555 3373.093262 654.159912 3394.879883 679.959961 C 3416.666748 705.760132 3445.619873 718.660034 3481.73999 718.660034 Z M 3030.23999 785.73999 C 2987.812988 785.73999 2951.120117 776.853394 2920.160156 759.079956 C 2889.199707 741.30658 2865.263428 716.223511 2848.350098 683.829956 C 2831.436523 651.436523 2822.97998 612.880249 2822.97998 568.159973 C 2822.97998 523.439758 2831.436523 484.883484 2848.350098 452.48999 C 2865.263428 420.096497 2889.199707 395.013428 2920.160156 377.23999 C 2951.120117 359.466553 2987.812988 350.580017 3030.23999 350.580017 C 3071.520264 350.580017 3107.639893 359.466553 3138.600098 377.23999 C 3169.560059 395.013428 3193.639893 420.096497 3210.839844 452.48999 C 3228.040039 484.883484 3236.640137 523.439758 3236.640137 568.159973 C 3236.640137 612.880249 3228.040039 651.436523 3210.839844 683.829956 C 3193.639893 716.223511 3169.560059 741.30658 3138.600098 759.079956 C 3107.639893 776.853394 3071.520264 785.73999 3030.23999 785.73999 Z M 3030.23999 718.660034 C 3065.786865 718.660034 3094.453125 705.760132 3116.23999 679.959961 C 3138.026855 654.159912 3148.919922 616.893555 3148.919922 568.159973 C 3148.919922 519.426453 3138.026855 482.303467 3116.23999 456.789978 C 3094.453125 431.27655 3065.786865 418.52002 3030.23999 418.52002 C 2994.119873 418.52002 2965.166748 431.27655 2943.379883 456.789978 C 2921.593262 482.303467 2910.699951 519.426453 2910.699951 568.159973 C 2910.699951 616.893555 2921.593262 654.159912 2943.379883 679.959961 C 2965.166748 705.760132 2994.119873 718.660034 3030.23999 718.660034 Z M 2613.140137 785.73999 C 2587.913086 785.73999 2561.82666 782.873352 2534.879883 777.140015 C 2507.933105 771.406616 2483.566895 761.660034 2461.780029 747.900024 C 2452.033203 742.166626 2446.013184 735 2443.719971 726.400024 C 2441.426758 717.799927 2442 709.773376 2445.439941 702.320007 C 2448.879883 694.866638 2454.469971 689.563354 2462.209961 686.410034 C 2469.950195 683.256653 2478.693359 684.26001 2488.439941 689.420044 C 2510.800293 701.460083 2532.299805 710.059937 2552.939941 715.219971 C 2573.580078 720.380005 2593.933105 722.959961 2614 722.959961 C 2644.386719 722.959961 2667.319824 717.513428 2682.800049 706.619995 C 2698.280029 695.726624 2706.02002 681.10675 2706.02002 662.76001 C 2706.02002 647.853271 2700.860107 636.243408 2690.540039 627.929993 C 2680.219971 619.616638 2664.740234 613.166687 2644.100098 608.579956 L 2562.399902 592.23999 C 2490.159668 577.333252 2454.040039 540.066956 2454.040039 480.440002 C 2454.040039 440.879822 2469.806641 409.346802 2501.339844 385.840027 C 2532.873535 362.333191 2574.153076 350.580017 2625.180176 350.580017 C 2676.780273 350.580017 2721.213135 363.193237 2758.47998 388.419983 C 2767.65332 394.153381 2773.100098 401.176636 2774.819824 409.48999 C 2776.540039 417.803345 2775.393311 425.543274 2771.379883 432.710022 C 2767.366699 439.876709 2761.48999 444.893311 2753.75 447.76001 C 2746.01001 450.626709 2736.97998 449.480042 2726.660156 444.320007 C 2709.459961 433.999939 2692.260254 426.403381 2675.060059 421.530029 C 2657.859863 416.656616 2641.233398 414.219971 2625.180176 414.219971 C 2595.366699 414.219971 2572.720215 419.809937 2557.23999 430.98999 C 2541.759766 442.170044 2534.02002 457.21991 2534.02002 476.140015 C 2534.02002 504.806824 2552.939941 523.15332 2590.780029 531.179993 L 2672.47998 547.52002 C 2709.746826 554.973389 2737.983398 567.586548 2757.189941 585.359985 C 2776.396729 603.133423 2786 627.213196 2786 657.599976 C 2786 697.733521 2770.233398 729.12323 2738.699951 751.77002 C 2707.166504 774.416748 2665.313477 785.73999 2613.140137 785.73999 Z M 1299.060059 784.02002 C 1270.393188 784.02002 1256.060059 769.400146 1256.060059 740.160034 L 1256.060059 396.159973 C 1256.060059 366.919861 1270.106567 352.299988 1298.199951 352.299988 C 1326.293457 352.299988 1340.339966 366.919861 1340.339966 396.159973 L 1340.339966 427.97998 C 1354.67334 402.753235 1374.309814 383.546753 1399.25 370.359985 C 1424.190186 357.173279 1452.139893 350.580017 1483.099976 350.580017 C 1582.287109 350.580017 1631.880005 406.766113 1631.880005 519.140015 L 1631.880005 740.160034 C 1631.880005 769.400146 1617.546875 784.02002 1588.880005 784.02002 C 1559.639893 784.02002 1545.02002 769.400146 1545.02002 740.160034 L 1545.02002 524.299988 C 1545.02002 488.17981 1537.996704 461.806763 1523.949951 445.179993 C 1509.90332 428.553223 1487.973511 420.23999 1458.160034 420.23999 C 1423.186523 420.23999 1395.236816 431.27655 1374.310059 453.349976 C 1353.383179 475.423462 1342.920044 504.519836 1342.920044 540.640015 L 1342.920044 740.160034 C 1342.920044 769.400146 1328.300171 784.02002 1299.060059 784.02002 Z M 1751.419922 727.690002 C 1790.980225 766.390198 1845.159668 785.73999 1913.959961 785.73999 C 1937.466797 785.73999 1962.263184 782.443359 1988.349976 775.849976 C 2014.436768 769.256592 2037.226563 759.366699 2056.719971 746.179993 C 2067.613281 739.299927 2074.350098 731.130005 2076.929932 721.670044 C 2079.51001 712.209961 2078.793457 703.610046 2074.780029 695.869995 C 2070.766602 688.130005 2064.31665 683.256714 2055.429932 681.25 C 2046.543213 679.243286 2036.080078 681.679932 2024.040039 688.559998 C 2006.266602 700.026733 1987.920166 707.909973 1969 712.209961 C 1950.079834 716.51001 1932.02002 718.660034 1914.820068 718.660034 C 1828.81958 718.660034 1782.666748 675.087097 1776.359985 587.940002 L 2049.840088 587.940002 C 2072.773438 587.940002 2084.23999 578.19342 2084.23999 558.700012 C 2084.23999 493.913025 2067.613525 443.030212 2034.359863 406.049988 C 2001.106445 369.069824 1955.526978 350.580017 1897.619995 350.580017 C 1857.48645 350.580017 1821.940186 359.753235 1790.97998 378.099976 C 1760.019775 396.446777 1735.796753 422.103149 1718.310059 455.070007 C 1700.823242 488.036804 1692.079956 526.019775 1692.079956 569.02002 C 1692.079956 636.100342 1711.859863 688.989807 1751.419922 727.690002 Z M 2204.640137 745.320007 C 2230.440186 772.266846 2269.712891 785.73999 2322.459961 785.73999 C 2331.633301 785.73999 2342.09668 784.880005 2353.850098 783.160034 C 2365.603516 781.440002 2374.919922 779.146667 2381.800049 776.280029 C 2389.82666 773.986694 2395.416504 769.256714 2398.569824 762.089966 C 2401.723389 754.92334 2403.300049 746.753418 2403.300049 737.579956 C 2403.300049 725.539917 2401.293457 717.369995 2397.280029 713.070007 C 2393.266602 708.77002 2388.106689 706.619995 2381.800049 706.619995 C 2376.06665 707.193359 2369.473389 708.483337 2362.02002 710.48999 C 2354.56665 712.496704 2345.680176 713.5 2335.359863 713.5 C 2306.119873 713.5 2285.050049 705.760071 2272.149902 690.280029 C 2259.25 674.799927 2252.800049 651.866821 2252.800049 621.47998 L 2252.800049 425.400024 L 2353.419922 425.400024 C 2377.5 425.400024 2389.540039 414.220093 2389.540039 391.859985 C 2389.540039 369.499878 2377.5 358.320007 2353.419922 358.320007 L 2252.800049 358.320007 L 2252.800049 269.73999 C 2252.800049 240.499878 2238.466797 225.880005 2209.800049 225.880005 C 2180.559814 225.880005 2165.939941 240.499878 2165.939941 269.73999 L 2165.939941 358.320007 L 2114.340088 358.320007 C 2090.259766 358.320007 2078.219971 369.499878 2078.219971 391.859985 C 2078.219971 414.220093 2090.259766 425.400024 2114.340088 425.400024 L 2165.939941 425.400024 L 2165.939941 628.359985 C 2165.939941 679.386963 2178.839844 718.373169 2204.640137 745.320007 Z M 1815.060059 445.179993 C 1836.273438 422.819885 1864.939819 411.640015 1901.060059 411.640015 C 1934.886841 411.640015 1961.259888 422.389893 1980.179932 443.890015 C 1999.100098 465.390137 2009.419922 495.633118 2011.140137 534.619995 L 1776.359985 534.619995 C 1780.946777 497.353149 1793.846558 467.5401 1815.060059 445.179993 Z"/>
    </g>
</svg>
