<?xml version="1.0" encoding="UTF-8"?>
<!-- Generated by Pixelmator Pro 3.7 -->
<svg width="4184" height="1089" viewBox="0 0 4184 1089" xmlns="http://www.w3.org/2000/svg">
    <g id="Logo-mit-Schriftzug">
        <g id="Logo">
            <g id="Unten">
                <path id="path1" fill="#01695f" fill-rule="evenodd" stroke="none" d="M 664.688599 521.316895 C 613.258301 494.650635 530.074341 494.172241 478.893738 520.248474 L 76.253235 725.391968 C 25.072849 751.46814 25.275269 794.225159 76.705544 820.891418 L 481.311462 1030.677002 C 532.741516 1057.343384 615.925659 1057.821777 667.106079 1031.745483 L 1069.746826 826.602051 C 1120.927246 800.525879 1120.724609 757.76886 1069.294434 731.102539 Z"/>
                <path id="path2" fill="#ffffff" fill-rule="evenodd" stroke="none" d="M 678.497559 494.68399 C 618.497192 463.574188 525.100403 463.037079 465.274689 493.517944 L 62.634155 698.661438 C 28.561773 716.021179 7.85508 742.306519 8.000728 773.0625 C 8.145529 803.639465 28.885256 829.889709 62.896557 847.524353 L 467.502472 1057.309937 C 527.502563 1088.4198 620.899597 1088.956909 680.72522 1058.475952 L 1083.365845 853.332581 C 1117.438354 835.972839 1138.14502 809.687439 1137.999268 778.931458 C 1137.85437 748.354492 1117.114746 722.104309 1083.103516 704.469666 L 678.497559 494.68399 Z M 478.893738 520.248474 C 530.074341 494.172241 613.258301 494.650635 664.688599 521.316895 L 1069.294434 731.102539 C 1120.724609 757.76886 1120.927246 800.525879 1069.746826 826.602051 L 667.106079 1031.745483 C 615.925659 1057.821777 532.741516 1057.343384 481.311462 1030.677002 L 76.705544 820.891418 C 25.275269 794.225159 25.072849 751.46814 76.253235 725.391968 L 478.893738 520.248474 Z"/>
            </g>
            <g id="Mitte">
                <path id="path3" fill="#01695f" fill-opacity="0.699077" fill-rule="evenodd" stroke="none" d="M 664.688599 291.316895 C 613.258301 264.650635 530.074341 264.172241 478.893738 290.248474 L 76.253235 495.391907 C 25.072849 521.468079 25.275269 564.225159 76.705544 590.891418 L 481.311462 800.677063 C 532.741516 827.343384 615.925659 827.821716 667.106079 801.745483 L 1069.746826 596.602051 C 1120.927246 570.525879 1120.724609 527.76886 1069.294434 501.102539 Z"/>
                <path id="path4" fill="#ffffff" fill-rule="evenodd" stroke="none" d="M 678.497559 264.68399 C 618.497192 233.574173 525.100403 233.037079 465.274689 263.517944 L 62.634159 468.661377 C 28.561773 486.021118 7.85508 512.306519 8.000728 543.062439 C 8.145529 573.639465 28.885258 599.889709 62.896557 617.524353 L 467.502472 827.309998 C 527.502563 858.419861 620.899597 858.956909 680.725159 828.476013 L 1083.365845 623.332581 C 1117.438354 605.972839 1138.14502 579.687439 1137.999268 548.931458 C 1137.85437 518.354492 1117.114746 492.104309 1083.103516 474.469666 L 678.497559 264.68399 Z M 478.893738 290.248474 C 530.074341 264.172241 613.258301 264.650635 664.688599 291.316895 L 1069.294434 501.102539 C 1120.724609 527.76886 1120.927246 570.525879 1069.746826 596.602051 L 667.106079 801.745483 C 615.925659 827.821716 532.741516 827.343384 481.311462 800.677063 L 76.705544 590.891418 C 25.275269 564.225159 25.072849 521.468079 76.253235 495.391907 L 478.893738 290.248474 Z"/>
            </g>
            <g id="Oben">
                <path id="path5" fill="#01695f" fill-opacity="0.395981" fill-rule="evenodd" stroke="none" d="M 664.688599 61.322876 C 613.258301 34.656616 530.074341 34.178345 478.893738 60.254517 L 76.253235 265.397949 C 25.072849 291.474121 25.275269 334.23114 76.705544 360.897461 L 481.311462 570.683105 C 532.741516 597.349365 615.925659 597.827759 667.106079 571.751526 L 1069.746826 366.608093 C 1120.927246 340.531921 1120.724609 297.774841 1069.294434 271.108582 Z"/>
                <path id="path6" fill="#ffffff" fill-rule="evenodd" stroke="none" d="M 678.497559 34.689964 C 618.497253 3.580189 525.100464 3.043156 465.274719 33.523972 L 62.634159 238.667435 C 28.561771 256.027161 7.85508 282.312531 8.000728 313.068451 C 8.145529 343.645477 28.885242 369.895691 62.89653 387.530365 L 467.502472 597.31604 C 527.502625 628.425842 620.899658 628.962952 680.725159 598.482056 L 1083.365845 393.338623 C 1117.438354 375.978882 1138.14502 349.693481 1137.999268 318.9375 C 1137.85437 288.360504 1117.114624 262.110321 1083.103394 244.475677 L 678.497559 34.689964 Z M 478.893738 60.254517 C 530.074341 34.178345 613.258301 34.656616 664.688599 61.322876 L 1069.294434 271.108582 C 1120.724609 297.774841 1120.927246 340.531921 1069.746826 366.608093 L 667.106079 571.751526 C 615.925659 597.827759 532.741516 597.349365 481.311462 570.683105 L 76.705544 360.897461 C 25.275269 334.23114 25.072849 291.474121 76.253235 265.397949 L 478.893738 60.254517 Z"/>
            </g>
        </g>
        <g id="netsody">
            <path id="path7" fill="#005e54" fill-rule="evenodd" stroke="none" d="M 3879.179932 947.820007 C 3863.126465 947.820007 3852.090088 941.943359 3846.070068 930.190002 C 3840.050049 918.436646 3840.47998 904.820068 3847.360107 889.339966 L 3898.100098 775.820007 L 3745.02002 420.640015 C 3738.139893 405.159912 3737.996582 391.400085 3744.590088 379.359985 C 3751.18335 367.319946 3764.226563 361.299988 3783.719971 361.299988 C 3794.040039 361.299988 3802.496582 363.879944 3809.090088 369.039978 C 3815.68335 374.200012 3821.560059 383.086609 3826.719971 395.700012 L 3944.540039 686.380005 L 4064.080078 395.700012 C 4069.240234 382.513245 4075.259766 373.483337 4082.139648 368.609985 C 4089.02002 363.736633 4098.47998 361.299988 4110.52002 361.299988 C 4126 361.299988 4136.606445 367.319946 4142.339844 379.359985 C 4148.073242 391.400085 4147.786621 404.87323 4141.47998 419.780029 L 3926.47998 914.280029 C 3920.746582 927.466736 3914.296631 936.353333 3907.129883 940.940002 C 3899.963379 945.526672 3890.646729 947.820007 3879.179932 947.820007 Z M 3466.379883 794.73999 C 3429.686523 794.73999 3397.436768 785.996765 3369.629883 768.51001 C 3341.823242 751.023254 3320.180176 725.940186 3304.699951 693.26001 C 3289.219971 660.579834 3281.47998 621.880249 3281.47998 577.159973 C 3281.47998 532.439758 3289.219971 493.883484 3304.699951 461.48999 C 3320.180176 429.096497 3341.679932 404.013428 3369.199951 386.23999 C 3396.720215 368.466553 3429.113037 359.580017 3466.379883 359.580017 C 3497.913574 359.580017 3526.006592 366.459961 3550.659912 380.219971 C 3575.313477 393.980042 3593.659912 412.61322 3605.699951 436.119995 L 3605.699951 218.539978 C 3605.699951 189.299866 3620.033203 174.679993 3648.699951 174.679993 C 3677.940186 174.679993 3692.560059 189.299866 3692.560059 218.539978 L 3692.560059 749.160034 C 3692.560059 778.400146 3678.226807 793.02002 3649.560059 793.02002 C 3620.893311 793.02002 3606.560059 778.400146 3606.560059 749.160034 L 3606.560059 716.47998 C 3593.946533 740.56012 3575.313477 759.623291 3550.659912 773.670044 C 3526.006592 787.716736 3497.913574 794.73999 3466.379883 794.73999 Z M 3488.73999 727.660034 C 3524.286865 727.660034 3552.953125 714.760132 3574.73999 688.959961 C 3596.526855 663.159912 3607.419922 625.893555 3607.419922 577.159973 C 3607.419922 528.426453 3596.526855 491.303467 3574.73999 465.789978 C 3552.953125 440.27655 3524.286865 427.52002 3488.73999 427.52002 C 3452.619873 427.52002 3423.666748 440.27655 3401.879883 465.789978 C 3380.093262 491.303467 3369.199951 528.426453 3369.199951 577.159973 C 3369.199951 625.893555 3380.093262 663.159912 3401.879883 688.959961 C 3423.666748 714.760132 3452.619873 727.660034 3488.73999 727.660034 Z M 3037.23999 794.73999 C 2994.812988 794.73999 2958.120117 785.853394 2927.160156 768.079956 C 2896.199707 750.30658 2872.263428 725.223511 2855.350098 692.829956 C 2838.436523 660.436523 2829.97998 621.880249 2829.97998 577.159973 C 2829.97998 532.439758 2838.436523 493.883484 2855.350098 461.48999 C 2872.263428 429.096497 2896.199707 404.013428 2927.160156 386.23999 C 2958.120117 368.466553 2994.812988 359.580017 3037.23999 359.580017 C 3078.520264 359.580017 3114.639893 368.466553 3145.600098 386.23999 C 3176.560059 404.013428 3200.639893 429.096497 3217.839844 461.48999 C 3235.040039 493.883484 3243.640137 532.439758 3243.640137 577.159973 C 3243.640137 621.880249 3235.040039 660.436523 3217.839844 692.829956 C 3200.639893 725.223511 3176.560059 750.30658 3145.600098 768.079956 C 3114.639893 785.853394 3078.520264 794.73999 3037.23999 794.73999 Z M 3037.23999 727.660034 C 3072.786865 727.660034 3101.453125 714.760132 3123.23999 688.959961 C 3145.026855 663.159912 3155.919922 625.893555 3155.919922 577.159973 C 3155.919922 528.426453 3145.026855 491.303467 3123.23999 465.789978 C 3101.453125 440.27655 3072.786865 427.52002 3037.23999 427.52002 C 3001.119873 427.52002 2972.166748 440.27655 2950.379883 465.789978 C 2928.593262 491.303467 2917.699951 528.426453 2917.699951 577.159973 C 2917.699951 625.893555 2928.593262 663.159912 2950.379883 688.959961 C 2972.166748 714.760132 3001.119873 727.660034 3037.23999 727.660034 Z M 2620.140137 794.73999 C 2594.913086 794.73999 2568.82666 791.873352 2541.879883 786.140015 C 2514.933105 780.406616 2490.566895 770.660034 2468.780029 756.900024 C 2459.033203 751.166626 2453.013184 744 2450.719971 735.400024 C 2448.426758 726.799927 2449 718.773376 2452.439941 711.320007 C 2455.879883 703.866638 2461.469971 698.563354 2469.209961 695.410034 C 2476.950195 692.256653 2485.693359 693.26001 2495.439941 698.420044 C 2517.800293 710.460083 2539.299805 719.059937 2559.939941 724.219971 C 2580.580078 729.380005 2600.933105 731.959961 2621 731.959961 C 2651.386719 731.959961 2674.319824 726.513428 2689.800049 715.619995 C 2705.280029 704.726624 2713.02002 690.10675 2713.02002 671.76001 C 2713.02002 656.853271 2707.860107 645.243408 2697.540039 636.929993 C 2687.219971 628.616638 2671.740234 622.166687 2651.100098 617.579956 L 2569.399902 601.23999 C 2497.159668 586.333252 2461.040039 549.066956 2461.040039 489.440002 C 2461.040039 449.879822 2476.806641 418.346802 2508.339844 394.840027 C 2539.873535 371.333191 2581.153076 359.580017 2632.180176 359.580017 C 2683.780273 359.580017 2728.213135 372.193237 2765.47998 397.419983 C 2774.65332 403.153381 2780.100098 410.176636 2781.819824 418.48999 C 2783.540039 426.803345 2782.393311 434.543274 2778.379883 441.710022 C 2774.366699 448.876709 2768.48999 453.893311 2760.75 456.76001 C 2753.01001 459.626709 2743.97998 458.480042 2733.660156 453.320007 C 2716.459961 442.999939 2699.260254 435.403381 2682.060059 430.530029 C 2664.859863 425.656616 2648.233398 423.219971 2632.180176 423.219971 C 2602.366699 423.219971 2579.720215 428.809937 2564.23999 439.98999 C 2548.759766 451.170044 2541.02002 466.21991 2541.02002 485.140015 C 2541.02002 513.806824 2559.939941 532.15332 2597.780029 540.179993 L 2679.47998 556.52002 C 2716.746826 563.973389 2744.983398 576.586548 2764.189941 594.359985 C 2783.396729 612.133423 2793 636.213196 2793 666.599976 C 2793 706.733521 2777.233398 738.12323 2745.699951 760.77002 C 2714.166504 783.416748 2672.313477 794.73999 2620.140137 794.73999 Z M 1306.060059 793.02002 C 1277.393188 793.02002 1263.060059 778.400146 1263.060059 749.160034 L 1263.060059 405.159973 C 1263.060059 375.919861 1277.106567 361.299988 1305.199951 361.299988 C 1333.293457 361.299988 1347.339966 375.919861 1347.339966 405.159973 L 1347.339966 436.97998 C 1361.67334 411.753235 1381.309814 392.546753 1406.25 379.359985 C 1431.190186 366.173279 1459.139893 359.580017 1490.099976 359.580017 C 1589.287109 359.580017 1638.880005 415.766113 1638.880005 528.140015 L 1638.880005 749.160034 C 1638.880005 778.400146 1624.546875 793.02002 1595.880005 793.02002 C 1566.639893 793.02002 1552.02002 778.400146 1552.02002 749.160034 L 1552.02002 533.299988 C 1552.02002 497.17981 1544.996704 470.806763 1530.949951 454.179993 C 1516.90332 437.553223 1494.973511 429.23999 1465.160034 429.23999 C 1430.186523 429.23999 1402.236816 440.27655 1381.310059 462.349976 C 1360.383179 484.423462 1349.920044 513.519836 1349.920044 549.640015 L 1349.920044 749.160034 C 1349.920044 778.400146 1335.300171 793.02002 1306.060059 793.02002 Z M 1758.419922 736.690002 C 1797.980225 775.390198 1852.159668 794.73999 1920.959961 794.73999 C 1944.466797 794.73999 1969.263184 791.443359 1995.349976 784.849976 C 2021.436768 778.256592 2044.226563 768.366699 2063.719971 755.179993 C 2074.613281 748.299927 2081.350098 740.130005 2083.929932 730.670044 C 2086.51001 721.209961 2085.793457 712.610046 2081.780029 704.869995 C 2077.766602 697.130005 2071.31665 692.256714 2062.429932 690.25 C 2053.543213 688.243286 2043.080078 690.679932 2031.040039 697.559998 C 2013.266602 709.026733 1994.920166 716.909973 1976 721.209961 C 1957.079834 725.51001 1939.02002 727.660034 1921.820068 727.660034 C 1835.81958 727.660034 1789.666748 684.087097 1783.359985 596.940002 L 2056.840088 596.940002 C 2079.773438 596.940002 2091.23999 587.19342 2091.23999 567.700012 C 2091.23999 502.913025 2074.613525 452.030212 2041.359863 415.049988 C 2008.106445 378.069824 1962.526978 359.580017 1904.619995 359.580017 C 1864.48645 359.580017 1828.940186 368.753235 1797.97998 387.099976 C 1767.019775 405.446777 1742.796753 431.103149 1725.310059 464.070007 C 1707.823242 497.036804 1699.079956 535.019775 1699.079956 578.02002 C 1699.079956 645.100342 1718.859863 697.989807 1758.419922 736.690002 Z M 2211.640137 754.320007 C 2237.440186 781.266846 2276.712891 794.73999 2329.459961 794.73999 C 2338.633301 794.73999 2349.09668 793.880005 2360.850098 792.160034 C 2372.603516 790.440002 2381.919922 788.146667 2388.800049 785.280029 C 2396.82666 782.986694 2402.416504 778.256714 2405.569824 771.089966 C 2408.723389 763.92334 2410.300049 755.753418 2410.300049 746.579956 C 2410.300049 734.539917 2408.293457 726.369995 2404.280029 722.070007 C 2400.266602 717.77002 2395.106689 715.619995 2388.800049 715.619995 C 2383.06665 716.193359 2376.473389 717.483337 2369.02002 719.48999 C 2361.56665 721.496704 2352.680176 722.5 2342.359863 722.5 C 2313.119873 722.5 2292.050049 714.760071 2279.149902 699.280029 C 2266.25 683.799927 2259.800049 660.866821 2259.800049 630.47998 L 2259.800049 434.400024 L 2360.419922 434.400024 C 2384.5 434.400024 2396.540039 423.220093 2396.540039 400.859985 C 2396.540039 378.499878 2384.5 367.320007 2360.419922 367.320007 L 2259.800049 367.320007 L 2259.800049 278.73999 C 2259.800049 249.499878 2245.466797 234.880005 2216.800049 234.880005 C 2187.559814 234.880005 2172.939941 249.499878 2172.939941 278.73999 L 2172.939941 367.320007 L 2121.340088 367.320007 C 2097.259766 367.320007 2085.219971 378.499878 2085.219971 400.859985 C 2085.219971 423.220093 2097.259766 434.400024 2121.340088 434.400024 L 2172.939941 434.400024 L 2172.939941 637.359985 C 2172.939941 688.386963 2185.839844 727.373169 2211.640137 754.320007 Z M 1822.060059 454.179993 C 1843.273438 431.819885 1871.939819 420.640015 1908.060059 420.640015 C 1941.886841 420.640015 1968.259888 431.389893 1987.179932 452.890015 C 2006.100098 474.390137 2016.419922 504.633118 2018.140137 543.619995 L 1783.359985 543.619995 C 1787.946777 506.353149 1800.846558 476.5401 1822.060059 454.179993 Z"/>
            <path id="path8" fill="#ffffff" fill-rule="evenodd" stroke="none" d="M 3466.379883 824.73999 C 3502.985352 824.73999 3536.201172 816.436035 3565.511475 799.735962 C 3572.261475 795.890015 3578.654541 791.711365 3584.683838 787.204895 C 3596.006348 809.957397 3618.672119 823.02002 3649.560059 823.02002 C 3694.929688 823.02002 3722.560059 794.837158 3722.560059 749.160034 L 3722.560059 444.324066 L 3865.337891 775.600403 L 3819.971436 877.098083 C 3809.61084 900.409241 3808.884766 923.397644 3819.368652 943.866272 C 3830.864014 966.309204 3852.481689 977.820007 3879.179932 977.820007 C 3896.006104 977.820007 3910.878418 974.159119 3923.301758 966.207947 C 3936.312988 957.88092 3946.09668 944.401245 3953.991943 926.241882 L 4168.992188 431.741821 C 4169.031738 431.651093 4169.070313 431.560211 4169.108887 431.469086 C 4178.591797 409.054901 4179.067383 386.709198 4169.425781 366.461945 C 4158.464844 343.444244 4137.067871 331.299988 4110.52002 331.299988 C 4092.730225 331.299988 4077.30127 335.274078 4064.799805 344.128845 C 4052.473633 352.860016 4043.407959 366.373108 4036.334717 384.289886 L 4036.239014 384.522705 L 3944.741455 607.013245 L 3854.522949 384.430756 C 3847.522949 367.318756 3838.893555 354.269684 3827.57959 345.414978 C 3815.380615 335.868225 3800.406982 331.299988 3783.719971 331.299988 C 3757.287842 331.299988 3735.757324 339.959808 3722.560059 358.168701 L 3722.560059 218.539978 C 3722.560059 172.731293 3694.508789 144.679993 3648.699951 144.679993 C 3603.330322 144.679993 3575.699951 172.862839 3575.699951 218.539978 L 3575.699951 360.28772 C 3572.331055 358.108521 3568.857666 356.020386 3565.280762 354.024017 C 3536.021973 337.69339 3502.89209 329.580017 3466.379883 329.580017 C 3423.523193 329.580017 3385.470947 340.019104 3352.924316 361.038788 C 3320.623291 381.899902 3295.450439 411.268402 3277.631836 448.554688 C 3271.261475 461.885498 3266.067383 476.043274 3262.036133 491.016693 C 3257.486816 475.623108 3251.591797 461.085052 3244.336426 447.42099 C 3224.504395 410.070587 3196.434082 380.830627 3160.536133 360.222443 C 3124.845459 339.733337 3083.577148 329.580017 3037.23999 329.580017 C 2989.786865 329.580017 2947.95166 339.712006 2912.224121 360.222443 C 2876.269043 380.863037 2848.302734 410.169098 2828.756836 447.605011 C 2809.477051 484.530334 2799.97998 527.830017 2799.97998 577.159973 C 2799.97998 581.484192 2800.052979 585.762085 2800.199219 589.993347 C 2795.664307 583.681885 2790.453125 577.789185 2784.565674 572.341064 C 2760.844727 550.390137 2727.641113 535.558167 2685.363525 527.1026 L 2604.005615 510.830963 L 2603.664063 510.760162 C 2590.032959 507.830902 2580.987061 503.607452 2576.094238 498.863037 C 2572.60498 495.479462 2571.02002 491.540894 2571.02002 485.140015 C 2571.02002 475.879303 2574.112793 469.865601 2581.804688 464.310455 C 2591.460938 457.336426 2608.137939 453.219971 2632.180176 453.219971 C 2645.388916 453.219971 2659.273926 455.254883 2673.881836 459.393829 C 2688.457031 463.523407 2703.23291 470.049347 2718.225342 479.04483 C 2718.883545 479.439789 2719.556885 479.809357 2720.243408 480.15271 C 2737.42749 488.744904 2754.808838 490.952057 2771.169434 484.892426 C 2785.587158 479.552551 2797.053711 469.763947 2804.55542 456.367676 C 2812.129883 442.841858 2814.368164 427.733856 2811.19751 412.411102 C 2807.729492 395.647064 2797.315674 382.088959 2781.874512 372.291473 C 2739.539063 343.764282 2689.38208 329.580017 2632.180176 329.580017 C 2575.076416 329.580017 2527.527588 343.118164 2490.409912 370.787628 C 2451.268311 399.966278 2431.040039 440.422638 2431.040039 489.440002 C 2431.040039 564.489929 2478.085938 613.02948 2563.337158 630.620972 L 2563.516357 630.65741 L 2644.893066 646.932678 C 2661.243652 650.592957 2672.540771 655.314697 2678.720215 660.292664 C 2681.715576 662.705627 2683.02002 665.640564 2683.02002 671.76001 C 2683.02002 680.251465 2680.104004 685.759705 2672.535156 691.085815 C 2662.858643 697.895203 2645.743896 701.959961 2621 701.959961 C 2603.42334 701.959961 2585.510742 699.689331 2567.216064 695.115723 C 2549.111328 690.589478 2529.916992 682.911865 2509.662842 672.005859 L 2509.476807 671.906494 C 2492.406738 662.869263 2474.588867 660.824585 2457.891113 667.627197 C 2443.143066 673.635681 2431.843994 684.355347 2425.201172 698.748474 C 2425.010498 699.161499 2424.824463 699.575623 2424.643311 699.990784 C 2415.0271 690.538147 2402.505615 685.619995 2388.800049 685.619995 C 2387.803223 685.619995 2386.806885 685.669678 2385.814697 685.768921 C 2378.321777 686.51825 2370.156494 688.115784 2361.220947 690.521484 C 2356.519775 691.787231 2350.206299 692.5 2342.359863 692.5 C 2321.290771 692.5 2308.695557 687.873169 2302.196533 680.074402 C 2294.371826 670.684814 2289.800049 654.42926 2289.800049 630.47998 L 2289.800049 464.400024 L 2360.419922 464.400024 C 2400.592285 464.400024 2426.540039 440.305725 2426.540039 400.859985 C 2426.540039 361.414246 2400.592285 337.320007 2360.419922 337.320007 L 2289.800049 337.320007 L 2289.800049 278.73999 C 2289.800049 233.062851 2262.169678 204.880005 2216.800049 204.880005 C 2170.991211 204.880005 2142.939941 232.931305 2142.939941 278.73999 L 2142.939941 337.320007 L 2121.340088 337.320007 C 2086.018066 337.320007 2061.693359 355.947144 2056.334229 387.258636 C 2017.858521 348.811035 1966.668823 329.580017 1904.619995 329.580017 C 1859.250488 329.580017 1818.415894 340.117981 1782.685913 361.291199 C 1746.93396 382.47757 1718.854736 412.218353 1698.807617 450.012238 C 1678.933594 487.479614 1669.079956 530.28595 1669.079956 578.02002 C 1669.079956 652.781311 1691.772461 713.458984 1737.441162 758.135071 C 1782.981201 802.684937 1844.735229 824.73999 1920.959961 824.73999 C 1947.035522 824.73999 1974.287231 821.116943 2002.701294 813.935364 C 2031.893433 806.557068 2057.760986 795.360718 2080.156494 780.28009 C 2096.762207 769.68158 2108.193115 755.723877 2112.873047 738.56311 C 2117.374512 722.057617 2116.012939 705.718079 2108.412598 691.060303 C 2100.275391 675.367676 2086.443848 664.917297 2069.037842 660.986816 C 2051.852783 657.106262 2034.154175 661.227905 2016.155762 671.512756 C 2015.688477 671.779785 2015.228516 672.059326 2014.776245 672.351074 C 1999.88501 681.958374 1984.776367 688.450317 1969.35144 691.955933 C 1952.550537 695.774353 1936.71106 697.660034 1921.820068 697.660034 C 1863.220581 697.660034 1830.414185 675.813171 1818.170532 626.940002 L 2056.840088 626.940002 C 2095.358887 626.940002 2121.23999 604.94104 2121.23999 567.700012 C 2121.23999 528.581665 2115.60083 493.536957 2104.212402 462.793335 C 2109.572998 463.854553 2115.29541 464.400024 2121.340088 464.400024 L 2142.939941 464.400024 L 2142.939941 637.359985 C 2142.939941 695.571167 2158.298096 741.986877 2189.970947 775.067078 C 2222.059082 808.581726 2269.158691 824.73999 2329.459961 824.73999 C 2340.191406 824.73999 2352.081299 823.762756 2365.194092 821.843872 C 2378.474121 819.900452 2389.59668 817.232849 2398.80835 813.59314 C 2414.405273 808.641785 2426.459473 798.103699 2433.029297 783.171997 C 2434.845947 779.043823 2436.314453 774.760071 2437.443604 770.332336 C 2441.934814 774.898438 2447.193848 778.960449 2453.129639 782.497559 C 2477.872803 798.061401 2505.429199 809.05603 2535.636719 815.483154 C 2564.592529 821.643982 2592.766357 824.73999 2620.140137 824.73999 C 2678.182373 824.73999 2726.112305 811.772644 2763.199951 785.137024 C 2796.010498 761.573059 2815.602539 729.603149 2821.273438 690.925171 C 2823.578857 696.311401 2826.072998 701.575012 2828.756836 706.715088 C 2848.302734 744.150879 2876.269043 773.45697 2912.224365 794.097656 C 2947.95166 814.607971 2989.787109 824.73999 3037.23999 824.73999 C 3083.576904 824.73999 3124.845459 814.58667 3160.536133 794.097534 C 3196.434082 773.48938 3224.504395 744.24939 3244.336426 706.898804 C 3251.578613 693.259644 3257.465576 678.749573 3262.011475 663.387024 C 3266.037354 678.427795 3271.225098 692.670105 3277.587891 706.102539 C 3295.452637 743.817139 3320.891113 773.298828 3353.659424 793.905701 C 3386.397461 814.493591 3424.19165 824.73999 3466.379883 824.73999 Z M 3369.629883 768.51001 C 3397.436768 785.996765 3429.686523 794.73999 3466.379883 794.73999 C 3497.913574 794.73999 3526.006592 787.716736 3550.659912 773.670044 C 3575.313477 759.623291 3593.946533 740.56012 3606.560059 716.47998 L 3606.560059 749.160034 C 3606.560059 778.400146 3620.893311 793.02002 3649.560059 793.02002 C 3678.226807 793.02002 3692.560059 778.400146 3692.560059 749.160034 L 3692.560059 218.539978 C 3692.560059 189.299866 3677.940186 174.679993 3648.699951 174.679993 C 3620.033203 174.679993 3605.699951 189.299866 3605.699951 218.539978 L 3605.699951 436.119995 C 3593.659912 412.61322 3575.313477 393.980042 3550.659912 380.219971 C 3526.006592 366.459961 3497.913574 359.580017 3466.379883 359.580017 C 3429.113037 359.580017 3396.720215 368.466553 3369.199951 386.23999 C 3341.679932 404.013428 3320.180176 429.096497 3304.699951 461.48999 C 3289.219971 493.883484 3281.47998 532.439758 3281.47998 577.159973 C 3281.47998 621.880249 3289.219971 660.579834 3304.699951 693.26001 C 3320.180176 725.940186 3341.823242 751.023254 3369.629883 768.51001 Z M 2329.459961 794.73999 C 2276.712891 794.73999 2237.440186 781.266846 2211.640137 754.320007 C 2185.839844 727.373169 2172.939941 688.386963 2172.939941 637.359985 L 2172.939941 434.400024 L 2121.340088 434.400024 C 2097.259766 434.400024 2085.219971 423.220093 2085.219971 400.859985 C 2085.219971 378.499878 2097.259766 367.320007 2121.340088 367.320007 L 2172.939941 367.320007 L 2172.939941 278.73999 C 2172.939941 249.499878 2187.559814 234.880005 2216.800049 234.880005 C 2245.466797 234.880005 2259.800049 249.499878 2259.800049 278.73999 L 2259.800049 367.320007 L 2360.419922 367.320007 C 2384.5 367.320007 2396.540039 378.499878 2396.540039 400.859985 C 2396.540039 423.220093 2384.5 434.400024 2360.419922 434.400024 L 2259.800049 434.400024 L 2259.800049 630.47998 C 2259.800049 660.866821 2266.25 683.799927 2279.149902 699.280029 C 2292.050049 714.760071 2313.119873 722.5 2342.359863 722.5 C 2352.680176 722.5 2361.56665 721.496704 2369.02002 719.48999 C 2376.473389 717.483337 2383.06665 716.193359 2388.800049 715.619995 C 2395.106689 715.619995 2400.266602 717.77002 2404.280029 722.070007 C 2408.293457 726.369995 2410.300049 734.539917 2410.300049 746.579956 C 2410.300049 755.753418 2408.723389 763.92334 2405.569824 771.089966 C 2402.416504 778.256714 2396.82666 782.986694 2388.800049 785.280029 C 2381.919922 788.146667 2372.603516 790.440002 2360.850098 792.160034 C 2349.09668 793.880005 2338.633301 794.73999 2329.459961 794.73999 Z M 1306.060059 823.02002 C 1351.868774 823.02002 1379.920044 794.968689 1379.920044 749.160034 L 1379.920044 549.640015 C 1379.920044 520.867065 1387.710571 499.202972 1403.081177 482.990204 C 1418.104614 467.143524 1438.120117 459.23999 1465.160034 459.23999 C 1486.787964 459.23999 1500.269653 464.350677 1508.033325 473.540436 C 1516.760254 483.870331 1522.02002 503.621124 1522.02002 533.299988 L 1522.02002 749.160034 C 1522.02002 794.968689 1550.071289 823.02002 1595.880005 823.02002 C 1641.249878 823.02002 1668.880005 794.837219 1668.880005 749.160034 L 1668.880005 528.140015 C 1668.880005 465.246307 1654.434326 416.147369 1624.177002 381.86734 C 1593.175537 346.744385 1547.724609 329.580017 1490.099976 329.580017 C 1454.36499 329.580017 1421.598145 337.309601 1392.227417 352.838898 C 1384.153931 357.107635 1376.53064 361.911469 1369.365845 367.240143 C 1358.210693 344.449066 1335.822998 331.299988 1305.199951 331.299988 C 1260.26355 331.299988 1233.060059 359.613892 1233.060059 405.159973 L 1233.060059 749.160034 C 1233.060059 794.837219 1260.690186 823.02002 1306.060059 823.02002 Z M 1263.060059 749.160034 C 1263.060059 778.400146 1277.393188 793.02002 1306.060059 793.02002 C 1335.300171 793.02002 1349.920044 778.400146 1349.920044 749.160034 L 1349.920044 549.640015 C 1349.920044 513.519836 1360.383179 484.423462 1381.310059 462.349976 C 1402.236816 440.27655 1430.186523 429.23999 1465.160034 429.23999 C 1494.973511 429.23999 1516.90332 437.553223 1530.949951 454.179993 C 1544.996704 470.806763 1552.02002 497.17981 1552.02002 533.299988 L 1552.02002 749.160034 C 1552.02002 778.400146 1566.639893 793.02002 1595.880005 793.02002 C 1624.546875 793.02002 1638.880005 778.400146 1638.880005 749.160034 L 1638.880005 528.140015 C 1638.880005 415.766113 1589.287109 359.580017 1490.099976 359.580017 C 1459.139893 359.580017 1431.190186 366.173279 1406.25 379.359985 C 1381.309814 392.546753 1361.67334 411.753235 1347.339966 436.97998 L 1347.339966 405.159973 C 1347.339966 375.919861 1333.293457 361.299988 1305.199951 361.299988 C 1277.106567 361.299988 1263.060059 375.919861 1263.060059 405.159973 L 1263.060059 749.160034 Z M 1920.959961 794.73999 C 1852.159668 794.73999 1797.980225 775.390198 1758.419922 736.690002 C 1718.859863 697.989807 1699.079956 645.100342 1699.079956 578.02002 C 1699.079956 535.019775 1707.823242 497.036804 1725.310059 464.070007 C 1742.796753 431.103149 1767.019775 405.446777 1797.97998 387.099976 C 1828.940186 368.753235 1864.48645 359.580017 1904.619995 359.580017 C 1962.526978 359.580017 2008.106445 378.069824 2041.359863 415.049988 C 2074.613525 452.030212 2091.23999 502.913025 2091.23999 567.700012 C 2091.23999 587.19342 2079.773438 596.940002 2056.840088 596.940002 L 1783.359985 596.940002 C 1789.666748 684.087097 1835.81958 727.660034 1921.820068 727.660034 C 1939.02002 727.660034 1957.079834 725.51001 1976 721.209961 C 1994.920166 716.909973 2013.266602 709.026733 2031.040039 697.559998 C 2043.080078 690.679932 2053.543213 688.243286 2062.429932 690.25 C 2071.31665 692.256714 2077.766602 697.130005 2081.780029 704.869995 C 2085.793457 712.610046 2086.51001 721.209961 2083.929932 730.670044 C 2081.350098 740.130005 2074.613281 748.299927 2063.719971 755.179993 C 2044.226563 768.366699 2021.436768 778.256592 1995.349976 784.849976 C 1969.263184 791.443359 1944.466797 794.73999 1920.959961 794.73999 Z M 2541.879883 786.140015 C 2568.82666 791.873352 2594.913086 794.73999 2620.140137 794.73999 C 2672.313477 794.73999 2714.166504 783.416748 2745.699951 760.77002 C 2777.233398 738.12323 2793 706.733521 2793 666.599976 C 2793 636.213196 2783.396729 612.133423 2764.189941 594.359985 C 2744.983398 576.586548 2716.746826 563.973389 2679.47998 556.52002 L 2597.780029 540.179993 C 2559.939941 532.15332 2541.02002 513.806824 2541.02002 485.140015 C 2541.02002 466.21991 2548.759766 451.170044 2564.23999 439.98999 C 2579.720215 428.809937 2602.366699 423.219971 2632.180176 423.219971 C 2648.233398 423.219971 2664.859863 425.656616 2682.060059 430.530029 C 2699.260254 435.403381 2716.459961 442.999939 2733.660156 453.320007 C 2743.97998 458.480042 2753.01001 459.626709 2760.75 456.76001 C 2768.48999 453.893311 2774.366699 448.876709 2778.379883 441.710022 C 2782.393311 434.543274 2783.540039 426.803345 2781.819824 418.48999 C 2780.100098 410.176636 2774.65332 403.153381 2765.47998 397.419983 C 2728.213135 372.193237 2683.780273 359.580017 2632.180176 359.580017 C 2581.153076 359.580017 2539.873535 371.333191 2508.339844 394.840027 C 2476.806641 418.346802 2461.040039 449.879822 2461.040039 489.440002 C 2461.040039 549.066956 2497.159668 586.333252 2569.399902 601.23999 L 2651.100098 617.579956 C 2671.740234 622.166687 2687.219971 628.616638 2697.540039 636.929993 C 2707.860107 645.243408 2713.02002 656.853271 2713.02002 671.76001 C 2713.02002 690.10675 2705.280029 704.726624 2689.800049 715.619995 C 2674.319824 726.513428 2651.386719 731.959961 2621 731.959961 C 2600.933105 731.959961 2580.580078 729.380005 2559.939941 724.219971 C 2539.299805 719.059937 2517.800293 710.460083 2495.439941 698.420044 C 2485.693359 693.26001 2476.950195 692.256653 2469.209961 695.410034 C 2461.469971 698.563354 2455.879883 703.866638 2452.439941 711.320007 C 2449 718.773376 2448.426758 726.799927 2450.719971 735.400024 C 2453.013184 744 2459.033203 751.166626 2468.780029 756.900024 C 2490.566895 770.660034 2514.933105 780.406616 2541.879883 786.140015 Z M 2927.160156 768.079956 C 2958.120117 785.853394 2994.812988 794.73999 3037.23999 794.73999 C 3078.520264 794.73999 3114.639893 785.853394 3145.600098 768.079956 C 3176.560059 750.30658 3200.639893 725.223511 3217.839844 692.829956 C 3235.040039 660.436523 3243.640137 621.880249 3243.640137 577.159973 C 3243.640137 532.439758 3235.040039 493.883484 3217.839844 461.48999 C 3200.639893 429.096497 3176.560059 404.013428 3145.600098 386.23999 C 3114.639893 368.466553 3078.520264 359.580017 3037.23999 359.580017 C 2994.812988 359.580017 2958.120117 368.466553 2927.160156 386.23999 C 2896.199707 404.013428 2872.263428 429.096497 2855.350098 461.48999 C 2838.436523 493.883484 2829.97998 532.439758 2829.97998 577.159973 C 2829.97998 621.880249 2838.436523 660.436523 2855.350098 692.829956 C 2872.263428 725.223511 2896.199707 750.30658 2927.160156 768.079956 Z M 3846.070068 930.190002 C 3852.090088 941.943359 3863.126465 947.820007 3879.179932 947.820007 C 3890.646729 947.820007 3899.963379 945.526672 3907.129883 940.940002 C 3914.296631 936.353333 3920.746582 927.466736 3926.47998 914.280029 L 4141.47998 419.780029 C 4147.786621 404.87323 4148.073242 391.400085 4142.339844 379.359985 C 4136.606445 367.319946 4126 361.299988 4110.52002 361.299988 C 4098.47998 361.299988 4089.02002 363.736633 4082.139648 368.609985 C 4075.259766 373.483337 4069.240234 382.513245 4064.080078 395.700012 L 3944.540039 686.380005 L 3826.719971 395.700012 C 3821.560059 383.086609 3815.68335 374.200012 3809.090088 369.039978 C 3802.496582 363.879944 3794.040039 361.299988 3783.719971 361.299988 C 3764.226563 361.299988 3751.18335 367.319946 3744.590088 379.359985 C 3737.996582 391.400085 3738.139893 405.159912 3745.02002 420.640015 L 3898.100098 775.820007 L 3847.360107 889.339966 C 3840.47998 904.820068 3840.050049 918.436646 3846.070068 930.190002 Z M 1908.060059 420.640015 C 1871.939819 420.640015 1843.273438 431.819885 1822.060059 454.179993 C 1800.846558 476.5401 1787.946777 506.353149 1783.359985 543.619995 L 2018.140137 543.619995 C 2016.419922 504.633118 2006.100098 474.390137 1987.179932 452.890015 C 1968.259888 431.389893 1941.886841 420.640015 1908.060059 420.640015 Z M 3123.23999 688.959961 C 3101.453125 714.760132 3072.786865 727.660034 3037.23999 727.660034 C 3001.119873 727.660034 2972.166748 714.760132 2950.379883 688.959961 C 2928.593262 663.159912 2917.699951 625.893555 2917.699951 577.159973 C 2917.699951 528.426453 2928.593262 491.303467 2950.379883 465.789978 C 2972.166748 440.27655 3001.119873 427.52002 3037.23999 427.52002 C 3072.786865 427.52002 3101.453125 440.27655 3123.23999 465.789978 C 3145.026855 491.303467 3155.919922 528.426453 3155.919922 577.159973 C 3155.919922 625.893555 3145.026855 663.159912 3123.23999 688.959961 Z M 3574.73999 688.959961 C 3552.953125 714.760132 3524.286865 727.660034 3488.73999 727.660034 C 3452.619873 727.660034 3423.666748 714.760132 3401.879883 688.959961 C 3380.093262 663.159912 3369.199951 625.893555 3369.199951 577.159973 C 3369.199951 528.426453 3380.093262 491.303467 3401.879883 465.789978 C 3423.666748 440.27655 3452.619873 427.52002 3488.73999 427.52002 C 3524.286865 427.52002 3552.953125 440.27655 3574.73999 465.789978 C 3596.526855 491.303467 3607.419922 528.426453 3607.419922 577.159973 C 3607.419922 625.893555 3596.526855 663.159912 3574.73999 688.959961 Z M 1843.823975 474.827789 C 1859.100098 458.725922 1879.83313 450.640015 1908.060059 450.640015 C 1933.638428 450.640015 1951.725952 458.012665 1964.658447 472.708801 C 1973.688965 482.970703 1980.266235 496.515411 1984.177734 513.619995 L 1820.729248 513.619995 C 1826.120728 498.214325 1833.83667 485.354919 1843.823975 474.827789 Z M 3037.23999 697.660034 C 3009.789307 697.660034 2989.273193 688.519165 2973.300781 669.604492 C 2956.610352 649.839417 2947.699951 619.356689 2947.699951 577.159973 C 2947.699951 535.008789 2956.588623 504.717041 2973.193848 485.271362 C 2989.155273 466.579651 3009.717773 457.52002 3037.23999 457.52002 C 3064.151367 457.52002 3084.436523 466.546936 3100.42627 485.271515 C 3117.03125 504.716949 3125.919922 535.008545 3125.919922 577.159973 C 3125.919922 619.356995 3117.009766 649.839478 3100.319092 669.604431 C 3084.318848 688.552124 3064.079102 697.660034 3037.23999 697.660034 Z M 3488.73999 697.660034 C 3461.289307 697.660034 3440.773193 688.519165 3424.800781 669.604492 C 3408.110352 649.839417 3399.199951 619.356689 3399.199951 577.159973 C 3399.199951 535.008789 3408.088623 504.717041 3424.693848 485.271362 C 3440.655273 466.579651 3461.217773 457.52002 3488.73999 457.52002 C 3515.651367 457.52002 3535.936523 466.546936 3551.92627 485.271515 C 3568.53125 504.716949 3577.419922 535.008545 3577.419922 577.159973 C 3577.419922 619.356995 3568.509766 649.839478 3551.819092 669.604431 C 3535.818848 688.552124 3515.579102 697.660034 3488.73999 697.660034 Z"/>
        </g>
    </g>
</svg>
