<svg width="2832" height="1562" xmlns="http://www.w3.org/2000/svg" xmlns:xlink="http://www.w3.org/1999/xlink" xml:space="preserve" overflow="hidden"><g transform="translate(-385 -495)"><g><rect x="388" y="496" width="2828" height="1558" fill="#FFFFFF" fill-opacity="1"/><path d="M983.865 738 983.865 760.917 978.135 760.917 978.135 738ZM983.865 778.104 983.865 801.021 978.135 801.021 978.135 778.104ZM983.865 818.208 983.865 841.125 978.136 841.125 978.135 818.208ZM983.865 858.313 983.865 881.229 978.136 881.229 978.136 858.313ZM983.865 898.417 983.865 921.333 978.136 921.333 978.136 898.417ZM983.865 938.521 983.865 961.438 978.136 961.438 978.136 938.521ZM983.865 978.625 983.865 1001.54 978.136 1001.54 978.136 978.625ZM983.865 1018.73 983.865 1041.65 978.136 1041.65 978.136 1018.73ZM983.865 1058.83 983.865 1081.75 978.136 1081.75 978.136 1058.83ZM983.865 1098.94 983.865 1121.85 978.136 1121.85 978.136 1098.94ZM983.865 1139.04 983.865 1161.96 978.136 1161.96 978.136 1139.04ZM983.865 1179.15 983.865 1202.06 978.136 1202.06 978.136 1179.15ZM983.865 1219.25 983.865 1242.17 978.136 1242.17 978.136 1219.25ZM983.865 1259.35 983.865 1282.27 978.136 1282.27 978.136 1259.35ZM983.865 1299.46 983.865 1322.38 978.136 1322.38 978.136 1299.46ZM983.865 1339.56 983.865 1362.48 978.136 1362.48 978.136 1339.56ZM983.865 1379.67 983.865 1402.58 978.136 1402.58 978.136 1379.67ZM983.865 1419.77 983.865 1424.55 978.136 1424.55 978.136 1419.77ZM1006.42 1384.69 981 1430.45 955.58 1384.69C954.811 1383.31 955.31 1381.56 956.693 1380.79 958.076 1380.02 959.82 1380.52 960.588 1381.91L983.505 1423.16 978.496 1423.16 1001.41 1381.91C1002.18 1380.52 1003.93 1380.02 1005.31 1380.79 1006.69 1381.56 1007.19 1383.31 1006.42 1384.69Z" fill="#025F57" fill-rule="nonzero" fill-opacity="1"/><text fill="#000000" fill-opacity="1" font-family="Nunito,Nunito_MSFontService,sans-serif" font-style="normal" font-variant="normal" font-weight="700" font-stretch="normal" font-size="55" text-anchor="start" direction="ltr" writing-mode="lr-tb" unicode-bidi="normal" text-decoration="none" transform="matrix(1 0 0 1 924.743 1741)">Node Peer A</text><g><g><g><path d="M1169.55 1519.47C1169.55 1521.6 1167.82 1523.33 1165.69 1523.33L1134.81 1523.33C1132.68 1523.33 1130.95 1521.6 1130.95 1519.47 1130.95 1517.34 1132.68 1515.61 1134.81 1515.61L1165.69 1515.61C1167.82 1515.61 1169.55 1517.34 1169.55 1519.47ZM1165.69 1546.48 1134.81 1546.48C1132.68 1546.48 1130.95 1548.21 1130.95 1550.34 1130.95 1552.48 1132.68 1554.2 1134.81 1554.2L1165.69 1554.2C1167.82 1554.2 1169.55 1552.48 1169.55 1550.34 1169.55 1548.21 1167.82 1546.48 1165.69 1546.48ZM1200.42 1496.31 1200.42 1650.69C1200.42 1657.08 1195.24 1662.27 1188.84 1662.27L1111.66 1662.27C1105.26 1662.27 1100.08 1657.08 1100.08 1650.69L1100.08 1631.39 1053.77 1631.39 1053.77 1654.55 1073.06 1654.55C1075.19 1654.55 1076.92 1656.27 1076.92 1658.41 1076.92 1660.54 1075.19 1662.27 1073.06 1662.27L1026.75 1662.27C1024.62 1662.27 1022.89 1660.54 1022.89 1658.41 1022.89 1656.27 1024.62 1654.55 1026.75 1654.55L1046.05 1654.55 1046.05 1631.39 995.875 1631.39C985.218 1631.39 976.578 1622.75 976.578 1612.09L976.578 1542.62C976.578 1531.97 985.218 1523.33 995.875 1523.33L1100.08 1523.33 1100.08 1496.31C1100.08 1489.92 1105.26 1484.73 1111.66 1484.73L1188.84 1484.73C1195.24 1484.73 1200.42 1489.92 1200.42 1496.31ZM1100.08 1623.67 1100.08 1531.05 995.875 1531.05C989.48 1531.05 984.297 1536.23 984.297 1542.62L984.297 1612.09C984.297 1618.49 989.48 1623.67 995.875 1623.67ZM1192.7 1496.31C1192.7 1494.18 1190.98 1492.45 1188.84 1492.45L1111.66 1492.45C1109.52 1492.45 1107.8 1494.18 1107.8 1496.31L1107.8 1650.69C1107.8 1652.82 1109.52 1654.55 1111.66 1654.55L1188.84 1654.55C1190.98 1654.55 1192.7 1652.82 1192.7 1650.69ZM1150.25 1615.95C1145.99 1615.95 1142.53 1619.41 1142.53 1623.67 1142.53 1627.93 1145.99 1631.39 1150.25 1631.39 1154.51 1631.39 1157.97 1627.93 1157.97 1623.67 1157.97 1619.41 1154.51 1615.95 1150.25 1615.95Z" fill="#025F57" fill-rule="nonzero" fill-opacity="1"/></g></g></g><text fill="#000000" fill-opacity="1" font-family="Nunito,Nunito_MSFontService,sans-serif" font-style="normal" font-variant="normal" font-weight="700" font-stretch="normal" font-size="55" text-anchor="start" direction="ltr" writing-mode="lr-tb" unicode-bidi="normal" text-decoration="none" transform="matrix(1 0 0 1 2373.96 1736)">Node Peer B</text><g><g><g><path d="M202.89 68.9062C202.89 71.0204 201.176 72.7343 199.062 72.7343L168.437 72.7343C166.323 72.7343 164.609 71.0204 164.609 68.9062 164.609 66.792 166.323 65.0781 168.437 65.0781L199.062 65.0781C201.176 65.0781 202.89 66.792 202.89 68.9062ZM199.062 95.703 168.437 95.703C166.323 95.703 164.609 97.4169 164.609 99.5311 164.609 101.645 166.323 103.359 168.437 103.359L199.062 103.359C201.176 103.359 202.89 101.645 202.89 99.5311 202.89 97.4169 201.176 95.703 199.062 95.703ZM233.515 45.9375 233.515 199.062C233.515 205.405 228.374 210.547 222.031 210.547L145.469 210.547C139.126 210.547 133.984 205.405 133.984 199.062L133.984 179.922 88.0468 179.922 88.0468 202.89 107.187 202.89C109.302 202.89 111.016 204.604 111.016 206.719 111.016 208.833 109.302 210.547 107.187 210.547L61.2499 210.547C59.1357 210.547 57.4218 208.833 57.4218 206.719 57.4218 204.604 59.1357 202.89 61.2499 202.89L80.3905 202.89 80.3905 179.922 30.625 179.922C20.0539 179.922 11.4844 171.352 11.4844 160.781L11.4844 91.8749C11.4844 81.3038 20.0539 72.7343 30.625 72.7343L133.984 72.7343 133.984 45.9375C133.984 39.5948 139.126 34.4531 145.469 34.4531L222.031 34.4531C228.374 34.4531 233.515 39.5948 233.515 45.9375ZM133.984 172.265 133.984 80.3905 30.625 80.3905C24.2823 80.3905 19.1406 85.5323 19.1406 91.8749L19.1406 160.781C19.1406 167.124 24.2823 172.265 30.625 172.265ZM225.859 45.9375C225.859 43.8232 224.145 42.1093 222.031 42.1093L145.469 42.1093C143.354 42.1093 141.64 43.8232 141.64 45.9375L141.64 199.062C141.64 201.176 143.354 202.89 145.469 202.89L222.031 202.89C224.145 202.89 225.859 201.176 225.859 199.062ZM183.75 164.609C179.521 164.609 176.094 168.037 176.094 172.265 176.094 176.494 179.521 179.922 183.75 179.922 187.978 179.922 191.406 176.494 191.406 172.265 191.406 168.037 187.978 164.609 183.75 164.609Z" fill="#025F57" fill-rule="nonzero" fill-opacity="1" transform="matrix(1 0 0 1 2414 1447)"/></g></g></g><text fill="#000000" fill-opacity="1" font-family="Nunito,Nunito_MSFontService,sans-serif" font-style="normal" font-variant="normal" font-weight="700" font-stretch="normal" font-size="55" text-anchor="start" direction="ltr" writing-mode="lr-tb" unicode-bidi="normal" text-decoration="none" transform="matrix(1 0 0 1 1669.11 1038)">Super Peer</text><g><g><g><path d="M245.375 165.156 56.625 165.156C48.8067 165.156 42.4687 171.494 42.4687 179.312L42.4687 235.937C42.4687 243.756 48.8067 250.094 56.625 250.094L245.375 250.094C253.193 250.094 259.531 243.756 259.531 235.937L259.531 179.312C259.531 171.494 253.193 165.156 245.375 165.156ZM250.094 235.937C250.094 238.543 247.981 240.656 245.375 240.656L56.625 240.656C54.0189 240.656 51.9062 238.543 51.9062 235.937L51.9062 179.312C51.9062 176.706 54.0189 174.594 56.625 174.594L245.375 174.594C247.981 174.594 250.094 176.706 250.094 179.312ZM245.375 51.9062 56.625 51.9062C48.8067 51.9062 42.4687 58.2442 42.4687 66.0625L42.4687 122.687C42.4687 130.506 48.8067 136.844 56.625 136.844L245.375 136.844C253.193 136.844 259.531 130.506 259.531 122.687L259.531 66.0625C259.531 58.2442 253.193 51.9062 245.375 51.9062ZM250.094 122.687C250.094 125.294 247.981 127.406 245.375 127.406L56.625 127.406C54.0189 127.406 51.9062 125.294 51.9062 122.687L51.9062 66.0625C51.9062 63.4564 54.0189 61.3437 56.625 61.3437L245.375 61.3437C247.981 61.3437 250.094 63.4564 250.094 66.0625ZM221.781 207.625C221.781 212.837 217.556 217.062 212.344 217.062 207.131 217.062 202.906 212.837 202.906 207.625 202.906 202.413 207.131 198.187 212.344 198.187 217.556 198.187 221.781 202.413 221.781 207.625ZM221.781 94.3749C221.781 99.5871 217.556 103.812 212.344 103.812 207.131 103.812 202.906 99.5871 202.906 94.3749 202.906 89.1628 207.131 84.9374 212.344 84.9374 217.556 84.9374 221.781 89.1628 221.781 94.3749Z" fill="#025F57" fill-rule="nonzero" fill-opacity="1" transform="matrix(1 0 0 1.00331 1662 720)"/></g></g></g><rect x="492" y="1068" width="537" height="148" fill="#FFFFFF" fill-opacity="1"/><text fill="#000000" fill-opacity="1" font-family="Nunito,Nunito_MSFontService,sans-serif" font-style="normal" font-variant="normal" font-weight="400" font-stretch="normal" font-size="50" text-anchor="start" direction="ltr" writing-mode="lr-tb" unicode-bidi="normal" text-decoration="none" transform="matrix(1 0 0 1 492.398 1126)">(1) Publish Information</text><text fill="#000000" fill-opacity="1" font-family="Nunito,Nunito_MSFontService,sans-serif" font-style="normal" font-variant="normal" font-weight="400" font-stretch="normal" font-size="50" text-anchor="start" direction="ltr" writing-mode="lr-tb" unicode-bidi="normal" text-decoration="none" transform="matrix(1 0 0 1 492.398 1186)">(2) Connection Request</text><rect x="1167" y="1109" width="571" height="61.0002" fill="#FFFFFF" fill-opacity="1"/><text fill="#000000" fill-opacity="1" font-family="Nunito,Nunito_MSFontService,sans-serif" font-style="normal" font-variant="normal" font-weight="400" font-stretch="normal" font-size="50" text-anchor="start" direction="ltr" writing-mode="lr-tb" unicode-bidi="normal" text-decoration="none" transform="matrix(1 0 0 1 1166.52 1154)">(3) Connection Response</text><rect x="1902" y="1108" width="585" height="61.0002" fill="#FFFFFF" fill-opacity="1"/><text fill="#000000" fill-opacity="1" font-family="Nunito,Nunito_MSFontService,sans-serif" font-style="normal" font-variant="normal" font-weight="400" font-stretch="normal" font-size="50" text-anchor="start" direction="ltr" writing-mode="lr-tb" unicode-bidi="normal" text-decoration="none" transform="matrix(1 0 0 1 1907.65 1153)">Connection Response (3) </text><path d="M1272.58 1536.06 2364.24 1536.06 2364.24 1542.94 1272.58 1542.94ZM1312.16 1565.42 1265.5 1539.5 1312.16 1513.58C1313.82 1512.66 1315.91 1513.25 1316.84 1514.91 1317.76 1516.57 1317.16 1518.67 1315.5 1519.59L1315.5 1519.59 1274.25 1542.51 1274.25 1536.5 1315.5 1559.41C1317.16 1560.33 1317.76 1562.43 1316.84 1564.09 1315.91 1565.75 1313.82 1566.34 1312.16 1565.42ZM2324.66 1513.58 2371.32 1539.5 2324.66 1565.42C2323 1566.34 2320.91 1565.75 2319.98 1564.09 2319.06 1562.43 2319.66 1560.33 2321.32 1559.41L2321.32 1559.41 2362.57 1536.5 2362.57 1542.51 2321.32 1519.59C2319.66 1518.67 2319.06 1516.57 2319.98 1514.91 2320.91 1513.25 2323 1512.66 2324.66 1513.58Z" fill="#025F57" fill-rule="nonzero" fill-opacity="1"/><rect x="1443" y="1457" width="673" height="60.9999" fill="#FFFFFF" fill-opacity="1"/><text fill="#000000" fill-opacity="1" font-family="Nunito,Nunito_MSFontService,sans-serif" font-style="normal" font-variant="normal" font-weight="400" font-stretch="normal" font-size="50" text-anchor="start" direction="ltr" writing-mode="lr-tb" unicode-bidi="normal" text-decoration="none" transform="matrix(1 0 0 1 1442.64 1502)">(4) Connection Establishment</text><path d="M1276.91 1628.14 1299.82 1628.14 1299.82 1633.86 1276.91 1633.86ZM1317.01 1628.14 1339.93 1628.14 1339.93 1633.86 1317.01 1633.86ZM1357.12 1628.14 1380.03 1628.14 1380.03 1633.86 1357.12 1633.86ZM1397.22 1628.14 1420.14 1628.14 1420.14 1633.86 1397.22 1633.86ZM1437.32 1628.14 1460.24 1628.14 1460.24 1633.86 1437.32 1633.86ZM1477.43 1628.14 1500.34 1628.14 1500.34 1633.86 1477.43 1633.86ZM1517.53 1628.14 1540.45 1628.14 1540.45 1633.86 1517.53 1633.86ZM1557.64 1628.14 1580.55 1628.14 1580.55 1633.86 1557.64 1633.86ZM1597.74 1628.14 1620.66 1628.14 1620.66 1633.86 1597.74 1633.86ZM1637.84 1628.14 1660.76 1628.14 1660.76 1633.86 1637.84 1633.86ZM1677.95 1628.14 1700.87 1628.14 1700.87 1633.86 1677.95 1633.86ZM1718.05 1628.14 1740.97 1628.14 1740.97 1633.86 1718.05 1633.86ZM1758.16 1628.14 1781.07 1628.14 1781.07 1633.86 1758.16 1633.86ZM1798.26 1628.14 1821.18 1628.14 1821.18 1633.86 1798.26 1633.86ZM1838.37 1628.14 1861.28 1628.14 1861.28 1633.86 1838.37 1633.86ZM1878.47 1628.14 1901.39 1628.14 1901.39 1633.86 1878.47 1633.86ZM1918.57 1628.14 1941.49 1628.14 1941.49 1633.86 1918.57 1633.86ZM1958.68 1628.14 1981.59 1628.14 1981.59 1633.86 1958.68 1633.86ZM1998.78 1628.14 2021.7 1628.14 2021.7 1633.86 1998.78 1633.86ZM2038.89 1628.14 2061.8 1628.14 2061.8 1633.86 2038.89 1633.86ZM2078.99 1628.14 2101.91 1628.14 2101.91 1633.86 2078.99 1633.86ZM2119.09 1628.14 2142.01 1628.14 2142.01 1633.86 2119.09 1633.86ZM2159.2 1628.14 2182.12 1628.14 2182.12 1633.86 2159.2 1633.86ZM2199.3 1628.14 2222.22 1628.14 2222.22 1633.86 2199.3 1633.86ZM2239.41 1628.14 2262.32 1628.14 2262.32 1633.86 2239.41 1633.86ZM2279.51 1628.14 2302.43 1628.14 2302.43 1633.86 2279.51 1633.86ZM2319.62 1628.14 2342.53 1628.14 2342.53 1633.87 2319.62 1633.86ZM2359.72 1628.14 2362.14 1628.14 2362.14 1633.87 2359.72 1633.87ZM1316.76 1656.42 1271 1631 1316.76 1605.58 1316.76 1605.58C1318.14 1604.81 1319.89 1605.31 1320.66 1606.69 1321.42 1608.08 1320.93 1609.82 1319.54 1610.59L1278.29 1633.5 1278.29 1628.5 1319.54 1651.41C1320.93 1652.18 1321.42 1653.93 1320.66 1655.31 1319.89 1656.69 1318.14 1657.19 1316.76 1656.42ZM2322.29 1605.58 2368.05 1631 2322.29 1656.42C2320.91 1657.19 2319.16 1656.69 2318.39 1655.31 2317.62 1653.93 2318.12 1652.18 2319.51 1651.41L2360.76 1628.5 2360.76 1633.5 2319.51 1610.59C2318.12 1609.82 2317.62 1608.08 2318.39 1606.69 2319.16 1605.31 2320.91 1604.81 2322.29 1605.58Z" fill="#025F57" fill-rule="nonzero" fill-opacity="1"/><rect x="1454" y="1650" width="720" height="60.9999" fill="#FFFFFF" fill-opacity="1"/><text fill="#000000" fill-opacity="1" font-family="Nunito,Nunito_MSFontService,sans-serif" font-style="italic" font-variant="normal" font-weight="400" font-stretch="normal" font-size="50" text-anchor="start" direction="ltr" writing-mode="lr-tb" unicode-bidi="normal" text-decoration="none" transform="matrix(1 0 0 1 1563.67 1695)">Direct Communication</text><path d="M1058.5 822.062 1662.05 822.063 1662.05 828.938 1058.5 828.937ZM1622.47 799.579 1669.13 825.5 1622.47 851.422C1620.81 852.344 1618.72 851.746 1617.79 850.086 1616.87 848.427 1617.47 846.334 1619.13 845.412L1660.38 822.495 1660.38 828.505 1619.13 805.588 1619.13 805.588C1617.47 804.666 1616.87 802.574 1617.79 800.914 1618.72 799.255 1620.81 798.657 1622.47 799.579Z" fill="#025F57" fill-rule="nonzero" fill-opacity="1"/><path d="M1062.5 823.5 1062.5 1434.13" stroke="#025F57" stroke-width="6.875" stroke-linecap="butt" stroke-linejoin="miter" stroke-miterlimit="8" stroke-opacity="1" fill="none" fill-rule="evenodd"/><path d="M1154.94 911.5 1154.94 1424.1 1148.06 1424.1 1148.06 911.5ZM1177.42 1384.52 1151.5 1431.18 1125.58 1384.52C1124.66 1382.86 1125.25 1380.77 1126.91 1379.85 1128.57 1378.93 1130.67 1379.52 1131.59 1381.18L1154.51 1422.43 1148.5 1422.43 1171.41 1381.18C1172.33 1379.52 1174.43 1378.93 1176.09 1379.85 1177.75 1380.77 1178.34 1382.86 1177.42 1384.52Z" fill="#025F57" fill-rule="nonzero" fill-opacity="1"/><path d="M1149.5 916.5 1669.19 916.5" stroke="#025F57" stroke-width="6.875" stroke-linecap="butt" stroke-linejoin="miter" stroke-miterlimit="8" stroke-opacity="1" fill="none" fill-rule="evenodd"/><path d="M2580.5 821.5 2580.5 1432.13" stroke="#025F57" stroke-width="6.875" stroke-linecap="butt" stroke-linejoin="miter" stroke-miterlimit="8" stroke-opacity="1" fill="none" fill-rule="evenodd"/><path d="M2582.13 828.937 1978.58 828.938 1978.58 822.063 2582.13 822.062ZM2018.16 851.422 1971.5 825.5 2018.16 799.579C2019.82 798.657 2021.91 799.255 2022.84 800.914 2023.76 802.574 2023.16 804.666 2021.5 805.588L2021.5 805.588 1980.25 828.505 1980.25 822.495 2021.5 845.412 2021.5 845.412C2023.16 846.334 2023.76 848.427 2022.84 850.086 2021.91 851.746 2019.82 852.344 2018.16 851.422Z" fill="#025F57" fill-rule="nonzero" fill-opacity="1"/><path d="M2490.18 917.5 1970.5 917.5" stroke="#025F57" stroke-width="6.875" stroke-linecap="butt" stroke-linejoin="miter" stroke-miterlimit="8" stroke-opacity="1" fill="none" fill-rule="evenodd"/><path d="M2488.94 915.5 2488.94 1428.1 2482.06 1428.1 2482.06 915.5ZM2511.42 1388.52 2485.5 1435.18 2459.58 1388.52C2458.66 1386.86 2459.25 1384.77 2460.91 1383.85 2462.57 1382.93 2464.67 1383.52 2465.59 1385.18L2465.59 1385.18 2488.5 1426.43 2482.49 1426.43 2505.41 1385.18C2506.33 1383.52 2508.43 1382.93 2510.09 1383.85 2511.75 1384.77 2512.34 1386.86 2511.42 1388.52Z" fill="#025F57" fill-rule="nonzero" fill-opacity="1"/><path d="M2657.86 742 2657.86 764.917 2652.14 764.917 2652.14 742ZM2657.86 782.104 2657.86 805.021 2652.14 805.021 2652.14 782.104ZM2657.86 822.208 2657.86 845.125 2652.14 845.125 2652.14 822.208ZM2657.86 862.313 2657.86 885.229 2652.14 885.229 2652.14 862.313ZM2657.86 902.417 2657.86 925.333 2652.14 925.333 2652.14 902.417ZM2657.86 942.521 2657.86 965.438 2652.14 965.438 2652.14 942.521ZM2657.86 982.625 2657.86 1005.54 2652.14 1005.54 2652.14 982.625ZM2657.86 1022.73 2657.86 1045.65 2652.14 1045.65 2652.14 1022.73ZM2657.86 1062.83 2657.86 1085.75 2652.14 1085.75 2652.14 1062.83ZM2657.86 1102.94 2657.86 1125.85 2652.14 1125.85 2652.14 1102.94ZM2657.86 1143.04 2657.86 1165.96 2652.14 1165.96 2652.14 1143.04ZM2657.86 1183.15 2657.86 1206.06 2652.14 1206.06 2652.14 1183.15ZM2657.86 1223.25 2657.86 1246.17 2652.14 1246.17 2652.14 1223.25ZM2657.86 1263.35 2657.86 1286.27 2652.14 1286.27 2652.14 1263.35ZM2657.87 1303.46 2657.87 1326.38 2652.14 1326.38 2652.14 1303.46ZM2657.87 1343.56 2657.87 1366.48 2652.14 1366.48 2652.14 1343.56ZM2657.87 1383.67 2657.87 1406.58 2652.14 1406.58 2652.14 1383.67ZM2657.87 1423.77 2657.87 1428.55 2652.14 1428.55 2652.14 1423.77ZM2680.42 1388.69 2655 1434.45 2629.58 1388.69C2628.81 1387.31 2629.31 1385.56 2630.69 1384.79 2632.08 1384.02 2633.82 1384.52 2634.59 1385.91L2657.5 1427.16 2652.5 1427.16 2675.41 1385.91C2676.18 1384.52 2677.93 1384.02 2679.31 1384.79 2680.69 1385.56 2681.19 1387.31 2680.42 1388.69Z" fill="#025F57" fill-rule="nonzero" fill-opacity="1"/><path d="M976 718 2656.62 718" stroke="#025F57" stroke-width="5.72917" stroke-linecap="butt" stroke-linejoin="miter" stroke-miterlimit="8" stroke-dasharray="22.9167 17.1875" stroke-opacity="1" fill="none" fill-rule="evenodd"/><rect x="1486" y="637" width="650" height="61.0002" fill="#FFFFFF" fill-opacity="1"/><text fill="#000000" fill-opacity="1" font-family="Nunito,Nunito_MSFontService,sans-serif" font-style="italic" font-variant="normal" font-weight="400" font-stretch="normal" font-size="50" text-anchor="start" direction="ltr" writing-mode="lr-tb" unicode-bidi="normal" text-decoration="none" transform="matrix(1 0 0 1 1536.2 682)">Relayed Communication</text><rect x="2601" y="1099" width="523" height="87" fill="#FFFFFF" fill-opacity="1"/><text fill="#000000" fill-opacity="1" font-family="Nunito,Nunito_MSFontService,sans-serif" font-style="normal" font-variant="normal" font-weight="400" font-stretch="normal" font-size="50" text-anchor="start" direction="ltr" writing-mode="lr-tb" unicode-bidi="normal" text-decoration="none" transform="matrix(1 0 0 1 2601.29 1157)">(1) Publish Information</text><path d="M0 0 181.89 0.000360892" stroke="#025F57" stroke-width="6.875" stroke-linecap="butt" stroke-linejoin="miter" stroke-miterlimit="8" stroke-opacity="1" fill="none" fill-rule="evenodd" transform="matrix(-1 0 0 1 1690.39 1850.5)"/><path d="M0 0 181.89 0.000360892" stroke="#025F57" stroke-width="5.72917" stroke-linecap="butt" stroke-linejoin="miter" stroke-miterlimit="8" stroke-dasharray="22.9167 17.1875" stroke-opacity="1" fill="none" fill-rule="evenodd" transform="matrix(-1 0 0 1 1689.89 1932)"/><rect x="1714" y="1806" width="315" height="87" fill="#FFFFFF" fill-opacity="1"/><text fill="#000000" fill-opacity="1" font-family="Nunito,Nunito_MSFontService,sans-serif" font-style="normal" font-variant="normal" font-weight="400" font-stretch="normal" font-size="50" text-anchor="start" direction="ltr" writing-mode="lr-tb" unicode-bidi="normal" text-decoration="none" transform="matrix(1 0 0 1 1713.53 1864)">Control Plane</text><rect x="1714" y="1890" width="312" height="88" fill="#FFFFFF" fill-opacity="1"/><text fill="#000000" fill-opacity="1" font-family="Nunito,Nunito_MSFontService,sans-serif" font-style="normal" font-variant="normal" font-weight="400" font-stretch="normal" font-size="50" text-anchor="start" direction="ltr" writing-mode="lr-tb" unicode-bidi="normal" text-decoration="none" transform="matrix(1 0 0 1 1713.91 1949)">Data Plane</text></g></g></svg>