<?xml version="1.0" encoding="UTF-8"?>
<!-- Generated by Pixelmator Pro 3.7 -->
<svg width="4148" height="1089" viewBox="0 0 4148 1089" xmlns="http://www.w3.org/2000/svg">
    <g id="Logo-mit-Schriftzug">
        <g id="Logo">
            <g id="Unten">
                <path id="path1" fill="#ffffff" fill-rule="evenodd" stroke="none" d="M 664.688599 521.316895 C 613.258301 494.650635 530.074341 494.172241 478.893738 520.248474 L 76.253235 725.391968 C 25.072849 751.46814 25.275269 794.225159 76.705544 820.891418 L 481.311462 1030.677002 C 532.741516 1057.343384 615.925659 1057.821777 667.106079 1031.745483 L 1069.746826 826.602051 C 1120.927246 800.525879 1120.724609 757.76886 1069.294434 731.102539 Z"/>
                <path id="path2" fill="#005e54" fill-rule="evenodd" stroke="none" d="M 678.497559 494.68399 C 618.497192 463.574188 525.100403 463.037079 465.274689 493.517944 L 62.634155 698.661438 C 28.561773 716.021179 7.85508 742.306519 8.000728 773.0625 C 8.145529 803.639465 28.885256 829.889709 62.896557 847.524353 L 467.502472 1057.309937 C 527.502563 1088.4198 620.899597 1088.956909 680.72522 1058.475952 L 1083.365845 853.332581 C 1117.438354 835.972839 1138.14502 809.687439 1137.999268 778.931458 C 1137.85437 748.354492 1117.114746 722.104309 1083.103516 704.469666 L 678.497559 494.68399 Z M 478.893738 520.248474 C 530.074341 494.172241 613.258301 494.650635 664.688599 521.316895 L 1069.294434 731.102539 C 1120.724609 757.76886 1120.927246 800.525879 1069.746826 826.602051 L 667.106079 1031.745483 C 615.925659 1057.821777 532.741516 1057.343384 481.311462 1030.677002 L 76.705544 820.891418 C 25.275269 794.225159 25.072849 751.46814 76.253235 725.391968 L 478.893738 520.248474 Z"/>
            </g>
            <g id="Mitte">
                <path id="path3" fill="#ffffff" fill-opacity="0.695295" fill-rule="evenodd" stroke="none" d="M 664.688599 291.316895 C 613.258301 264.650635 530.074341 264.172241 478.893738 290.248474 L 76.253235 495.391907 C 25.072849 521.468079 25.275269 564.225159 76.705544 590.891418 L 481.311462 800.677063 C 532.741516 827.343384 615.925659 827.821716 667.106079 801.745483 L 1069.746826 596.602051 C 1120.927246 570.525879 1120.724609 527.76886 1069.294434 501.102539 Z"/>
                <path id="path4" fill="#005e54" fill-rule="evenodd" stroke="none" d="M 678.497559 264.68399 C 618.497192 233.574173 525.100403 233.037079 465.274689 263.517944 L 62.634159 468.661377 C 28.561773 486.021118 7.85508 512.306519 8.000728 543.062439 C 8.145529 573.639465 28.885258 599.889709 62.896557 617.524353 L 467.502472 827.309998 C 527.502563 858.419861 620.899597 858.956909 680.725159 828.476013 L 1083.365845 623.332581 C 1117.438354 605.972839 1138.14502 579.687439 1137.999268 548.931458 C 1137.85437 518.354492 1117.114746 492.104309 1083.103516 474.469666 L 678.497559 264.68399 Z M 478.893738 290.248474 C 530.074341 264.172241 613.258301 264.650635 664.688599 291.316895 L 1069.294434 501.102539 C 1120.724609 527.76886 1120.927246 570.525879 1069.746826 596.602051 L 667.106079 801.745483 C 615.925659 827.821716 532.741516 827.343384 481.311462 800.677063 L 76.705544 590.891418 C 25.275269 564.225159 25.072849 521.468079 76.253235 495.391907 L 478.893738 290.248474 Z"/>
            </g>
            <g id="Oben">
                <path id="path5" fill="#ffffff" fill-opacity="0.395981" fill-rule="evenodd" stroke="none" d="M 664.688599 61.322876 C 613.258301 34.656616 530.074341 34.178345 478.893738 60.254517 L 76.253235 265.397949 C 25.072849 291.474121 25.275269 334.23114 76.705544 360.897461 L 481.311462 570.683105 C 532.741516 597.349365 615.925659 597.827759 667.106079 571.751526 L 1069.746826 366.608093 C 1120.927246 340.531921 1120.724609 297.774841 1069.294434 271.108582 Z"/>
                <path id="path6" fill="#005e54" fill-rule="evenodd" stroke="none" d="M 678.497559 34.689964 C 618.497253 3.580189 525.100464 3.043156 465.274719 33.523972 L 62.634159 238.667435 C 28.561771 256.027161 7.85508 282.312531 8.000728 313.068451 C 8.145529 343.645477 28.885242 369.895691 62.89653 387.530365 L 467.502472 597.31604 C 527.502625 628.425842 620.899658 628.962952 680.725159 598.482056 L 1083.365845 393.338623 C 1117.438354 375.978882 1138.14502 349.693481 1137.999268 318.9375 C 1137.85437 288.360504 1117.114624 262.110321 1083.103394 244.475677 L 678.497559 34.689964 Z M 478.893738 60.254517 C 530.074341 34.178345 613.258301 34.656616 664.688599 61.322876 L 1069.294434 271.108582 C 1120.724609 297.774841 1120.927246 340.531921 1069.746826 366.608093 L 667.106079 571.751526 C 615.925659 597.827759 532.741516 597.349365 481.311462 570.683105 L 76.705544 360.897461 C 25.275269 334.23114 25.072849 291.474121 76.253235 265.397949 L 478.893738 60.254517 Z"/>
            </g>
        </g>
        <path id="netsody" fill="#ffffff" fill-rule="evenodd" stroke="none" d="M 3879.179932 947.820007 C 3863.126465 947.820007 3852.090088 941.943359 3846.070068 930.190002 C 3840.050049 918.436646 3840.47998 904.820068 3847.360107 889.339966 L 3898.100098 775.820007 L 3745.02002 420.640015 C 3738.139893 405.159912 3737.996582 391.400085 3744.590088 379.359985 C 3751.18335 367.319946 3764.226563 361.299988 3783.719971 361.299988 C 3794.040039 361.299988 3802.496582 363.879944 3809.090088 369.039978 C 3815.68335 374.200012 3821.560059 383.086609 3826.719971 395.700012 L 3944.540039 686.380005 L 4064.080078 395.700012 C 4069.240234 382.513245 4075.259766 373.483337 4082.139648 368.609985 C 4089.02002 363.736633 4098.47998 361.299988 4110.52002 361.299988 C 4126 361.299988 4136.606445 367.319946 4142.339844 379.359985 C 4148.073242 391.400085 4147.786621 404.87323 4141.47998 419.780029 L 3926.47998 914.280029 C 3920.746582 927.466736 3914.296631 936.353333 3907.129883 940.940002 C 3899.963379 945.526672 3890.646729 947.820007 3879.179932 947.820007 Z M 3466.379883 794.73999 C 3429.686523 794.73999 3397.436768 785.996765 3369.629883 768.51001 C 3341.823242 751.023254 3320.180176 725.940186 3304.699951 693.26001 C 3289.219971 660.579834 3281.47998 621.880249 3281.47998 577.159973 C 3281.47998 532.439758 3289.219971 493.883484 3304.699951 461.48999 C 3320.180176 429.096497 3341.679932 404.013428 3369.199951 386.23999 C 3396.720215 368.466553 3429.113037 359.580017 3466.379883 359.580017 C 3497.913574 359.580017 3526.006592 366.459961 3550.659912 380.219971 C 3575.313477 393.980042 3593.659912 412.61322 3605.699951 436.119995 L 3605.699951 218.539978 C 3605.699951 189.299866 3620.033203 174.679993 3648.699951 174.679993 C 3677.940186 174.679993 3692.560059 189.299866 3692.560059 218.539978 L 3692.560059 749.160034 C 3692.560059 778.400146 3678.226807 793.02002 3649.560059 793.02002 C 3620.893311 793.02002 3606.560059 778.400146 3606.560059 749.160034 L 3606.560059 716.47998 C 3593.946533 740.56012 3575.313477 759.623291 3550.659912 773.670044 C 3526.006592 787.716736 3497.913574 794.73999 3466.379883 794.73999 Z M 3488.73999 727.660034 C 3524.286865 727.660034 3552.953125 714.760132 3574.73999 688.959961 C 3596.526855 663.159912 3607.419922 625.893555 3607.419922 577.159973 C 3607.419922 528.426453 3596.526855 491.303467 3574.73999 465.789978 C 3552.953125 440.27655 3524.286865 427.52002 3488.73999 427.52002 C 3452.619873 427.52002 3423.666748 440.27655 3401.879883 465.789978 C 3380.093262 491.303467 3369.199951 528.426453 3369.199951 577.159973 C 3369.199951 625.893555 3380.093262 663.159912 3401.879883 688.959961 C 3423.666748 714.760132 3452.619873 727.660034 3488.73999 727.660034 Z M 3037.23999 794.73999 C 2994.812988 794.73999 2958.120117 785.853394 2927.160156 768.079956 C 2896.199707 750.30658 2872.263428 725.223511 2855.350098 692.829956 C 2838.436523 660.436523 2829.97998 621.880249 2829.97998 577.159973 C 2829.97998 532.439758 2838.436523 493.883484 2855.350098 461.48999 C 2872.263428 429.096497 2896.199707 404.013428 2927.160156 386.23999 C 2958.120117 368.466553 2994.812988 359.580017 3037.23999 359.580017 C 3078.520264 359.580017 3114.639893 368.466553 3145.600098 386.23999 C 3176.560059 404.013428 3200.639893 429.096497 3217.839844 461.48999 C 3235.040039 493.883484 3243.640137 532.439758 3243.640137 577.159973 C 3243.640137 621.880249 3235.040039 660.436523 3217.839844 692.829956 C 3200.639893 725.223511 3176.560059 750.30658 3145.600098 768.079956 C 3114.639893 785.853394 3078.520264 794.73999 3037.23999 794.73999 Z M 3037.23999 727.660034 C 3072.786865 727.660034 3101.453125 714.760132 3123.23999 688.959961 C 3145.026855 663.159912 3155.919922 625.893555 3155.919922 577.159973 C 3155.919922 528.426453 3145.026855 491.303467 3123.23999 465.789978 C 3101.453125 440.27655 3072.786865 427.52002 3037.23999 427.52002 C 3001.119873 427.52002 2972.166748 440.27655 2950.379883 465.789978 C 2928.593262 491.303467 2917.699951 528.426453 2917.699951 577.159973 C 2917.699951 625.893555 2928.593262 663.159912 2950.379883 688.959961 C 2972.166748 714.760132 3001.119873 727.660034 3037.23999 727.660034 Z M 2620.140137 794.73999 C 2594.913086 794.73999 2568.82666 791.873352 2541.879883 786.140015 C 2514.933105 780.406616 2490.566895 770.660034 2468.780029 756.900024 C 2459.033203 751.166626 2453.013184 744 2450.719971 735.400024 C 2448.426758 726.799927 2449 718.773376 2452.439941 711.320007 C 2455.879883 703.866638 2461.469971 698.563354 2469.209961 695.410034 C 2476.950195 692.256653 2485.693359 693.26001 2495.439941 698.420044 C 2517.800293 710.460083 2539.299805 719.059937 2559.939941 724.219971 C 2580.580078 729.380005 2600.933105 731.959961 2621 731.959961 C 2651.386719 731.959961 2674.319824 726.513428 2689.800049 715.619995 C 2705.280029 704.726624 2713.02002 690.10675 2713.02002 671.76001 C 2713.02002 656.853271 2707.860107 645.243408 2697.540039 636.929993 C 2687.219971 628.616638 2671.740234 622.166687 2651.100098 617.579956 L 2569.399902 601.23999 C 2497.159668 586.333252 2461.040039 549.066956 2461.040039 489.440002 C 2461.040039 449.879822 2476.806641 418.346802 2508.339844 394.840027 C 2539.873535 371.333191 2581.153076 359.580017 2632.180176 359.580017 C 2683.780273 359.580017 2728.213135 372.193237 2765.47998 397.419983 C 2774.65332 403.153381 2780.100098 410.176636 2781.819824 418.48999 C 2783.540039 426.803345 2782.393311 434.543274 2778.379883 441.710022 C 2774.366699 448.876709 2768.48999 453.893311 2760.75 456.76001 C 2753.01001 459.626709 2743.97998 458.480042 2733.660156 453.320007 C 2716.459961 442.999939 2699.260254 435.403381 2682.060059 430.530029 C 2664.859863 425.656616 2648.233398 423.219971 2632.180176 423.219971 C 2602.366699 423.219971 2579.720215 428.809937 2564.23999 439.98999 C 2548.759766 451.170044 2541.02002 466.21991 2541.02002 485.140015 C 2541.02002 513.806824 2559.939941 532.15332 2597.780029 540.179993 L 2679.47998 556.52002 C 2716.746826 563.973389 2744.983398 576.586548 2764.189941 594.359985 C 2783.396729 612.133423 2793 636.213196 2793 666.599976 C 2793 706.733521 2777.233398 738.12323 2745.699951 760.77002 C 2714.166504 783.416748 2672.313477 794.73999 2620.140137 794.73999 Z M 1306.060059 793.02002 C 1277.393188 793.02002 1263.060059 778.400146 1263.060059 749.160034 L 1263.060059 405.159973 C 1263.060059 375.919861 1277.106567 361.299988 1305.199951 361.299988 C 1333.293457 361.299988 1347.339966 375.919861 1347.339966 405.159973 L 1347.339966 436.97998 C 1361.67334 411.753235 1381.309814 392.546753 1406.25 379.359985 C 1431.190186 366.173279 1459.139893 359.580017 1490.099976 359.580017 C 1589.287109 359.580017 1638.880005 415.766113 1638.880005 528.140015 L 1638.880005 749.160034 C 1638.880005 778.400146 1624.546875 793.02002 1595.880005 793.02002 C 1566.639893 793.02002 1552.02002 778.400146 1552.02002 749.160034 L 1552.02002 533.299988 C 1552.02002 497.17981 1544.996704 470.806763 1530.949951 454.179993 C 1516.90332 437.553223 1494.973511 429.23999 1465.160034 429.23999 C 1430.186523 429.23999 1402.236816 440.27655 1381.310059 462.349976 C 1360.383179 484.423462 1349.920044 513.519836 1349.920044 549.640015 L 1349.920044 749.160034 C 1349.920044 778.400146 1335.300171 793.02002 1306.060059 793.02002 Z M 1758.419922 736.690002 C 1797.980225 775.390198 1852.159668 794.73999 1920.959961 794.73999 C 1944.466797 794.73999 1969.263184 791.443359 1995.349976 784.849976 C 2021.436768 778.256592 2044.226563 768.366699 2063.719971 755.179993 C 2074.613281 748.299927 2081.350098 740.130005 2083.929932 730.670044 C 2086.51001 721.209961 2085.793457 712.610046 2081.780029 704.869995 C 2077.766602 697.130005 2071.31665 692.256714 2062.429932 690.25 C 2053.543213 688.243286 2043.080078 690.679932 2031.040039 697.559998 C 2013.266602 709.026733 1994.920166 716.909973 1976 721.209961 C 1957.079834 725.51001 1939.02002 727.660034 1921.820068 727.660034 C 1835.81958 727.660034 1789.666748 684.087097 1783.359985 596.940002 L 2056.840088 596.940002 C 2079.773438 596.940002 2091.23999 587.19342 2091.23999 567.700012 C 2091.23999 502.913025 2074.613525 452.030212 2041.359863 415.049988 C 2008.106445 378.069824 1962.526978 359.580017 1904.619995 359.580017 C 1864.48645 359.580017 1828.940186 368.753235 1797.97998 387.099976 C 1767.019775 405.446777 1742.796753 431.103149 1725.310059 464.070007 C 1707.823242 497.036804 1699.079956 535.019775 1699.079956 578.02002 C 1699.079956 645.100342 1718.859863 697.989807 1758.419922 736.690002 Z M 2211.640137 754.320007 C 2237.440186 781.266846 2276.712891 794.73999 2329.459961 794.73999 C 2338.633301 794.73999 2349.09668 793.880005 2360.850098 792.160034 C 2372.603516 790.440002 2381.919922 788.146667 2388.800049 785.280029 C 2396.82666 782.986694 2402.416504 778.256714 2405.569824 771.089966 C 2408.723389 763.92334 2410.300049 755.753418 2410.300049 746.579956 C 2410.300049 734.539917 2408.293457 726.369995 2404.280029 722.070007 C 2400.266602 717.77002 2395.106689 715.619995 2388.800049 715.619995 C 2383.06665 716.193359 2376.473389 717.483337 2369.02002 719.48999 C 2361.56665 721.496704 2352.680176 722.5 2342.359863 722.5 C 2313.119873 722.5 2292.050049 714.760071 2279.149902 699.280029 C 2266.25 683.799927 2259.800049 660.866821 2259.800049 630.47998 L 2259.800049 434.400024 L 2360.419922 434.400024 C 2384.5 434.400024 2396.540039 423.220093 2396.540039 400.859985 C 2396.540039 378.499878 2384.5 367.320007 2360.419922 367.320007 L 2259.800049 367.320007 L 2259.800049 278.73999 C 2259.800049 249.499878 2245.466797 234.880005 2216.800049 234.880005 C 2187.559814 234.880005 2172.939941 249.499878 2172.939941 278.73999 L 2172.939941 367.320007 L 2121.340088 367.320007 C 2097.259766 367.320007 2085.219971 378.499878 2085.219971 400.859985 C 2085.219971 423.220093 2097.259766 434.400024 2121.340088 434.400024 L 2172.939941 434.400024 L 2172.939941 637.359985 C 2172.939941 688.386963 2185.839844 727.373169 2211.640137 754.320007 Z M 1822.060059 454.179993 C 1843.273438 431.819885 1871.939819 420.640015 1908.060059 420.640015 C 1941.886841 420.640015 1968.259888 431.389893 1987.179932 452.890015 C 2006.100098 474.390137 2016.419922 504.633118 2018.140137 543.619995 L 1783.359985 543.619995 C 1787.946777 506.353149 1800.846558 476.5401 1822.060059 454.179993 Z"/>
    </g>
</svg>
